<svg width="88" height="32" viewBox="0 0 88 32" fill="none" xmlns="http://www.w3.org/2000/svg">
<rect x="0.5" y="0.5" width="87" height="31" rx="15.5" stroke="#4493F8"/>
<path d="M67.3406 21.75V13.238H68.8926L68.9566 15.51L68.7486 15.398C68.8446 14.8434 69.0259 14.3954 69.2926 14.054C69.5592 13.7127 69.8846 13.462 70.2686 13.302C70.6526 13.1314 71.0686 13.046 71.5166 13.046C72.1566 13.046 72.6846 13.19 73.1006 13.478C73.5272 13.7554 73.8472 14.1394 74.0606 14.63C74.2846 15.11 74.3966 15.6594 74.3966 16.278V21.75H72.7006V16.79C72.7006 16.2887 72.6472 15.8674 72.5406 15.526C72.4339 15.1847 72.2579 14.9234 72.0126 14.742C71.7672 14.5607 71.4472 14.47 71.0526 14.47C70.4552 14.47 69.9699 14.6674 69.5966 15.062C69.2232 15.4567 69.0366 16.0327 69.0366 16.79V21.75H67.3406Z" fill="#4493F8"/>
<path d="M62.8916 21.75V10.39H64.6196V21.75H62.8916Z" fill="#4493F8"/>
<path d="M56.2866 21.942C55.5613 21.942 54.9266 21.7607 54.3826 21.398C53.8493 21.0353 53.4386 20.5233 53.1506 19.862C52.8733 19.19 52.7346 18.4007 52.7346 17.494C52.7346 16.5873 52.8786 15.8033 53.1666 15.142C53.4546 14.47 53.8653 13.9527 54.3986 13.59C54.932 13.2273 55.5613 13.046 56.2866 13.046C56.8733 13.046 57.396 13.1687 57.8546 13.414C58.3133 13.6593 58.66 14.0007 58.8946 14.438V10.39H60.5906V21.75H59.0066L58.9586 20.47C58.724 20.9287 58.3666 21.2913 57.8866 21.558C57.4173 21.814 56.884 21.942 56.2866 21.942ZM56.7346 20.47C57.1933 20.47 57.5826 20.3527 57.9026 20.118C58.2226 19.8833 58.468 19.542 58.6386 19.094C58.8093 18.646 58.8946 18.1127 58.8946 17.494C58.8946 16.854 58.8093 16.3153 58.6386 15.878C58.468 15.43 58.2226 15.094 57.9026 14.87C57.5826 14.6353 57.1933 14.518 56.7346 14.518C56.052 14.518 55.508 14.7847 55.1026 15.318C54.6973 15.8407 54.4946 16.566 54.4946 17.494C54.4946 18.4113 54.6973 19.1367 55.1026 19.67C55.508 20.2033 56.052 20.47 56.7346 20.47Z" fill="#4493F8"/>
<path d="M47.7041 21.942C46.8721 21.942 46.1521 21.7607 45.5441 21.398C44.9468 21.0354 44.4828 20.518 44.1521 19.846C43.8321 19.174 43.6721 18.39 43.6721 17.494C43.6721 16.598 43.8321 15.8194 44.1521 15.158C44.4828 14.486 44.9468 13.9687 45.5441 13.606C46.1415 13.2327 46.8454 13.046 47.6561 13.046C48.4241 13.046 49.1015 13.2274 49.6881 13.59C50.2748 13.942 50.7281 14.454 51.0481 15.126C51.3788 15.798 51.5441 16.6087 51.5441 17.558V17.99H45.4321C45.4748 18.822 45.6935 19.446 46.0881 19.862C46.4935 20.278 47.0375 20.486 47.7201 20.486C48.2215 20.486 48.6375 20.3687 48.9681 20.134C49.2988 19.8994 49.5281 19.5847 49.6561 19.19L51.4161 19.302C51.1921 20.0914 50.7495 20.7314 50.0881 21.222C49.4375 21.702 48.6428 21.942 47.7041 21.942ZM45.4321 16.71H49.7521C49.6988 15.9527 49.4801 15.3927 49.0961 15.03C48.7228 14.6674 48.2428 14.486 47.6561 14.486C47.0481 14.486 46.5468 14.678 46.1521 15.062C45.7681 15.4354 45.5281 15.9847 45.4321 16.71Z" fill="#4493F8"/>
<path d="M35.3562 21.75V10.39H37.0522V17.446L40.8762 13.238H43.0202L39.6922 16.822L43.1482 21.75H41.1962L38.5562 17.878L37.0522 19.478V21.75H35.3562Z" fill="#4493F8"/>
<path d="M26.0593 21.75V13.238H27.6113L27.6753 15.51L27.4673 15.398C27.5633 14.8434 27.7447 14.3954 28.0113 14.054C28.278 13.7127 28.6033 13.462 28.9873 13.302C29.3713 13.1314 29.7873 13.046 30.2353 13.046C30.8753 13.046 31.4033 13.19 31.8193 13.478C32.246 13.7554 32.566 14.1394 32.7793 14.63C33.0033 15.11 33.1153 15.6594 33.1153 16.278V21.75H31.4193V16.79C31.4193 16.2887 31.366 15.8674 31.2593 15.526C31.1527 15.1847 30.9767 14.9234 30.7313 14.742C30.486 14.5607 30.166 14.47 29.7713 14.47C29.174 14.47 28.6887 14.6674 28.3153 15.062C27.942 15.4567 27.7553 16.0327 27.7553 16.79V21.75H26.0593Z" fill="#4493F8"/>
<path d="M21.825 21.7501V13.2381H23.521V21.7501H21.825ZM21.793 12.0061V10.3101H23.553V12.0061H21.793Z" fill="#4493F8"/>
<path d="M13.376 21.75V10.39H15.104V21.11L14.192 20.166H20.64V21.75H13.376Z" fill="#4493F8"/>
</svg>
