<svg width="56" height="32" viewBox="0 0 56 32" fill="none" xmlns="http://www.w3.org/2000/svg">
<rect x="0.5" y="0.5" width="55" height="31" rx="15.5" stroke="#0969DA"/>
<path d="M42.0247 21.75C41.47 21.75 41.022 21.606 40.6807 21.318C40.3394 21.03 40.1687 20.5713 40.1687 19.942V10.39H41.8647V19.782C41.8647 19.974 41.9127 20.118 42.0087 20.214C42.1154 20.31 42.2647 20.358 42.4567 20.358H43.1287V21.75H42.0247Z" fill="#0969DA"/>
<path d="M36.2 21.7501V13.2381H37.896V21.7501H36.2ZM36.168 12.0061V10.3101H37.928V12.0061H36.168Z" fill="#0969DA"/>
<path d="M29.6622 21.9419C28.7769 21.9419 28.0676 21.7392 27.5342 21.3339C27.0116 20.9286 26.7502 20.3579 26.7502 19.6219C26.7502 18.8859 26.9689 18.3152 27.4062 17.9099C27.8542 17.4939 28.5422 17.1952 29.4702 17.0139L32.3982 16.4539C32.3982 15.7926 32.2436 15.3019 31.9342 14.9819C31.6249 14.6512 31.1662 14.4859 30.5582 14.4859C30.0142 14.4859 29.5876 14.6086 29.2782 14.8539C28.9689 15.0886 28.7556 15.4406 28.6382 15.9099L26.8942 15.7979C27.0542 14.9446 27.4489 14.2726 28.0782 13.7819C28.7182 13.2912 29.5449 13.0459 30.5582 13.0459C31.7102 13.0459 32.5849 13.3552 33.1822 13.9739C33.7902 14.5819 34.0942 15.4406 34.0942 16.5499V19.8619C34.0942 20.0646 34.1262 20.2086 34.1902 20.2939C34.2649 20.3686 34.3822 20.4059 34.5422 20.4059H34.8462V21.7499C34.7929 21.7606 34.7076 21.7712 34.5902 21.7819C34.4729 21.7926 34.3502 21.7979 34.2222 21.7979C33.8596 21.7979 33.5449 21.7392 33.2782 21.6219C33.0222 21.5046 32.8302 21.3126 32.7022 21.0459C32.5742 20.7686 32.5102 20.4006 32.5102 19.9419L32.6862 20.0219C32.6009 20.3952 32.4142 20.7259 32.1262 21.0139C31.8489 21.3019 31.4916 21.5312 31.0542 21.7019C30.6276 21.8619 30.1636 21.9419 29.6622 21.9419ZM29.9342 20.5979C30.4462 20.5979 30.8836 20.5019 31.2462 20.3099C31.6089 20.1072 31.8916 19.8299 32.0942 19.4779C32.2969 19.1259 32.3982 18.7259 32.3982 18.2779V17.7339L29.9022 18.2139C29.3902 18.3099 29.0276 18.4646 28.8142 18.6779C28.6116 18.8806 28.5102 19.1419 28.5102 19.4619C28.5102 19.8246 28.6329 20.1072 28.8782 20.3099C29.1342 20.5019 29.4862 20.5979 29.9342 20.5979Z" fill="#0969DA"/>
<path d="M13.376 21.75V10.39H15.744L19.12 19.718L22.496 10.39H24.864V21.75H23.136V13.43L20.08 21.734H18.16L15.104 13.43V21.75H13.376Z" fill="#0969DA"/>
</svg>
