<svg width="200" height="32" viewBox="0 0 200 32" fill="none" xmlns="http://www.w3.org/2000/svg">
<rect x="0.5" y="0.5" width="199" height="31" rx="15.5" stroke="#4493F8"/>
<path d="M174.294 21.75V13.238H175.846L175.894 15.35L175.702 15.286C175.798 14.8167 175.963 14.4167 176.198 14.086C176.443 13.7554 176.742 13.4994 177.094 13.318C177.446 13.1367 177.83 13.046 178.246 13.046C178.971 13.046 179.563 13.254 180.022 13.67C180.48 14.0754 180.768 14.6354 180.886 15.35H180.614C180.71 14.8487 180.87 14.4327 181.094 14.102C181.328 13.7607 181.627 13.4994 181.99 13.318C182.352 13.1367 182.763 13.046 183.222 13.046C183.819 13.046 184.326 13.174 184.742 13.43C185.168 13.6754 185.488 14.038 185.702 14.518C185.926 14.998 186.038 15.5847 186.038 16.278V21.75H184.342V16.694C184.342 15.958 184.208 15.4034 183.942 15.03C183.675 14.6567 183.27 14.47 182.726 14.47C182.374 14.47 182.064 14.5607 181.798 14.742C181.531 14.9234 181.323 15.1847 181.174 15.526C181.035 15.8674 180.966 16.278 180.966 16.758V21.75H179.35V16.758C179.35 16.0327 179.227 15.4727 178.982 15.078C178.747 14.6727 178.342 14.47 177.766 14.47C177.403 14.47 177.088 14.5607 176.822 14.742C176.566 14.9234 176.363 15.19 176.214 15.542C176.064 15.8834 175.99 16.2887 175.99 16.758V21.75H174.294Z" fill="#4493F8"/>
<path d="M168.548 21.942C167.737 21.942 167.028 21.7607 166.42 21.398C165.812 21.0354 165.342 20.518 165.012 19.846C164.681 19.174 164.516 18.39 164.516 17.494C164.516 16.5874 164.681 15.8034 165.012 15.142C165.342 14.4807 165.812 13.9687 166.42 13.606C167.028 13.2327 167.737 13.046 168.548 13.046C169.358 13.046 170.068 13.2327 170.676 13.606C171.284 13.9687 171.753 14.4807 172.084 15.142C172.414 15.8034 172.58 16.5874 172.58 17.494C172.58 18.39 172.414 19.174 172.084 19.846C171.753 20.518 171.284 21.0354 170.676 21.398C170.068 21.7607 169.358 21.942 168.548 21.942ZM168.548 20.47C169.273 20.47 169.833 20.2087 170.228 19.686C170.622 19.1527 170.82 18.422 170.82 17.494C170.82 16.566 170.622 15.8407 170.228 15.318C169.833 14.7847 169.273 14.518 168.548 14.518C167.833 14.518 167.273 14.7847 166.868 15.318C166.473 15.8407 166.276 16.566 166.276 17.494C166.276 18.422 166.473 19.1527 166.868 19.686C167.273 20.2087 167.833 20.47 168.548 20.47Z" fill="#4493F8"/>
<path d="M159.688 21.942C158.878 21.942 158.168 21.7607 157.56 21.398C156.952 21.0354 156.483 20.518 156.152 19.846C155.822 19.174 155.656 18.39 155.656 17.494C155.656 16.598 155.822 15.8194 156.152 15.158C156.483 14.486 156.952 13.9687 157.56 13.606C158.168 13.2327 158.878 13.046 159.688 13.046C160.382 13.046 160.995 13.1687 161.528 13.414C162.072 13.6487 162.51 13.9954 162.84 14.454C163.182 14.9127 163.4 15.4727 163.496 16.134L161.72 16.23C161.635 15.6754 161.411 15.254 161.048 14.966C160.686 14.6674 160.232 14.518 159.688 14.518C158.974 14.518 158.414 14.7847 158.008 15.318C157.614 15.8407 157.416 16.566 157.416 17.494C157.416 18.422 157.614 19.1527 158.008 19.686C158.414 20.2087 158.974 20.47 159.688 20.47C160.232 20.47 160.686 20.3207 161.048 20.022C161.411 19.7127 161.635 19.2487 161.72 18.63L163.496 18.726C163.4 19.3767 163.182 19.942 162.84 20.422C162.51 20.902 162.072 21.2754 161.528 21.542C160.995 21.8087 160.382 21.942 159.688 21.942Z" fill="#4493F8"/>
<path d="M152.25 21.75V19.734H154.314V21.75H152.25Z" fill="#4493F8"/>
<path d="M147.403 21.75V13.238H148.955L149.019 15.494L148.875 15.446C148.992 14.678 149.227 14.118 149.579 13.766C149.942 13.414 150.427 13.238 151.035 13.238H151.851V14.758H151.035C150.608 14.758 150.251 14.8274 149.963 14.966C149.675 15.1047 149.456 15.318 149.307 15.606C149.168 15.894 149.099 16.2674 149.099 16.726V21.75H147.403Z" fill="#4493F8"/>
<path d="M140.787 21.942C139.902 21.942 139.192 21.7394 138.659 21.334C138.136 20.9287 137.875 20.358 137.875 19.622C137.875 18.886 138.094 18.3154 138.531 17.91C138.979 17.494 139.667 17.1954 140.595 17.014L143.523 16.454C143.523 15.7927 143.368 15.302 143.059 14.982C142.75 14.6514 142.291 14.486 141.683 14.486C141.139 14.486 140.712 14.6087 140.403 14.854C140.094 15.0887 139.88 15.4407 139.763 15.91L138.019 15.798C138.179 14.9447 138.574 14.2727 139.203 13.782C139.843 13.2914 140.67 13.046 141.683 13.046C142.835 13.046 143.71 13.3554 144.307 13.974C144.915 14.582 145.219 15.4407 145.219 16.55V19.862C145.219 20.0647 145.251 20.2087 145.315 20.294C145.39 20.3687 145.507 20.406 145.667 20.406H145.971V21.75C145.918 21.7607 145.832 21.7714 145.715 21.782C145.598 21.7927 145.475 21.798 145.347 21.798C144.984 21.798 144.67 21.7394 144.403 21.622C144.147 21.5047 143.955 21.3127 143.827 21.046C143.699 20.7687 143.635 20.4007 143.635 19.942L143.811 20.022C143.726 20.3954 143.539 20.726 143.251 21.014C142.974 21.302 142.616 21.5314 142.179 21.702C141.752 21.862 141.288 21.942 140.787 21.942ZM141.059 20.598C141.571 20.598 142.008 20.502 142.371 20.31C142.734 20.1074 143.016 19.83 143.219 19.478C143.422 19.126 143.523 18.726 143.523 18.278V17.734L141.027 18.214C140.515 18.31 140.152 18.4647 139.939 18.678C139.736 18.8807 139.635 19.142 139.635 19.462C139.635 19.8247 139.758 20.1074 140.003 20.31C140.259 20.502 140.611 20.598 141.059 20.598Z" fill="#4493F8"/>
<path d="M131.756 21.942C130.87 21.942 130.161 21.7394 129.628 21.334C129.105 20.9287 128.844 20.358 128.844 19.622C128.844 18.886 129.062 18.3154 129.5 17.91C129.948 17.494 130.636 17.1954 131.564 17.014L134.492 16.454C134.492 15.7927 134.337 15.302 134.028 14.982C133.718 14.6514 133.26 14.486 132.652 14.486C132.108 14.486 131.681 14.6087 131.372 14.854C131.062 15.0887 130.849 15.4407 130.732 15.91L128.988 15.798C129.148 14.9447 129.542 14.2727 130.172 13.782C130.812 13.2914 131.638 13.046 132.652 13.046C133.804 13.046 134.678 13.3554 135.276 13.974C135.884 14.582 136.188 15.4407 136.188 16.55V19.862C136.188 20.0647 136.22 20.2087 136.284 20.294C136.358 20.3687 136.476 20.406 136.636 20.406H136.94V21.75C136.886 21.7607 136.801 21.7714 136.684 21.782C136.566 21.7927 136.444 21.798 136.316 21.798C135.953 21.798 135.638 21.7394 135.372 21.622C135.116 21.5047 134.924 21.3127 134.796 21.046C134.668 20.7687 134.604 20.4007 134.604 19.942L134.78 20.022C134.694 20.3954 134.508 20.726 134.22 21.014C133.942 21.302 133.585 21.5314 133.148 21.702C132.721 21.862 132.257 21.942 131.756 21.942ZM132.028 20.598C132.54 20.598 132.977 20.502 133.34 20.31C133.702 20.1074 133.985 19.83 134.188 19.478C134.39 19.126 134.492 18.726 134.492 18.278V17.734L131.996 18.214C131.484 18.31 131.121 18.4647 130.908 18.678C130.705 18.8807 130.604 19.142 130.604 19.462C130.604 19.8247 130.726 20.1074 130.972 20.31C131.228 20.502 131.58 20.598 132.028 20.598Z" fill="#4493F8"/>
<path d="M120.091 21.75V10.39H121.787V15.158L121.579 15.126C121.675 14.646 121.851 14.2567 122.107 13.958C122.363 13.6487 122.677 13.4193 123.051 13.27C123.424 13.1207 123.835 13.046 124.283 13.046C124.901 13.046 125.424 13.1847 125.851 13.462C126.277 13.7287 126.597 14.1073 126.811 14.598C127.035 15.0887 127.147 15.6487 127.147 16.278V21.75H125.451V16.726C125.451 15.958 125.317 15.3927 125.051 15.03C124.795 14.6567 124.389 14.47 123.835 14.47C123.216 14.47 122.72 14.6673 122.347 15.062C121.973 15.446 121.787 16.0113 121.787 16.758V21.75H120.091Z" fill="#4493F8"/>
<path d="M113.999 24.342C113.327 24.342 112.735 24.2407 112.223 24.038C111.711 23.8354 111.29 23.5474 110.959 23.174C110.628 22.8114 110.404 22.3847 110.287 21.894L112.047 21.782C112.164 22.134 112.367 22.4114 112.655 22.614C112.954 22.8274 113.402 22.934 113.999 22.934C114.703 22.934 115.242 22.7847 115.615 22.486C115.999 22.1874 116.191 21.734 116.191 21.126V19.894C115.988 20.3314 115.663 20.678 115.215 20.934C114.767 21.19 114.266 21.318 113.711 21.318C112.996 21.318 112.362 21.142 111.807 20.79C111.252 20.438 110.82 19.9527 110.511 19.334C110.202 18.7154 110.047 18.0007 110.047 17.19C110.047 16.3687 110.196 15.6487 110.495 15.03C110.804 14.4114 111.231 13.926 111.775 13.574C112.33 13.222 112.954 13.046 113.647 13.046C114.255 13.046 114.788 13.1847 115.247 13.462C115.716 13.7394 116.052 14.1127 116.255 14.582V13.238H117.887V21.078C117.887 21.782 117.727 22.374 117.407 22.854C117.098 23.3447 116.65 23.7127 116.063 23.958C115.487 24.214 114.799 24.342 113.999 24.342ZM113.983 19.878C114.644 19.878 115.172 19.638 115.567 19.158C115.972 18.678 116.18 18.0167 116.191 17.174C116.202 16.6194 116.116 16.1447 115.935 15.75C115.754 15.3447 115.492 15.0354 115.151 14.822C114.82 14.598 114.431 14.486 113.983 14.486C113.29 14.486 112.751 14.7314 112.367 15.222C111.994 15.702 111.807 16.3527 111.807 17.174C111.807 18.006 111.999 18.6674 112.383 19.158C112.778 19.638 113.311 19.878 113.983 19.878Z" fill="#4493F8"/>
<path d="M105.016 21.942C104.184 21.942 103.464 21.7607 102.856 21.398C102.259 21.0354 101.795 20.518 101.464 19.846C101.144 19.174 100.984 18.39 100.984 17.494C100.984 16.598 101.144 15.8194 101.464 15.158C101.795 14.486 102.259 13.9687 102.856 13.606C103.454 13.2327 104.158 13.046 104.968 13.046C105.736 13.046 106.414 13.2274 107 13.59C107.587 13.942 108.04 14.454 108.36 15.126C108.691 15.798 108.856 16.6087 108.856 17.558V17.99H102.744C102.787 18.822 103.006 19.446 103.4 19.862C103.806 20.278 104.35 20.486 105.032 20.486C105.534 20.486 105.95 20.3687 106.28 20.134C106.611 19.8994 106.84 19.5847 106.968 19.19L108.728 19.302C108.504 20.0914 108.062 20.7314 107.4 21.222C106.75 21.702 105.955 21.942 105.016 21.942ZM102.744 16.71H107.064C107.011 15.9527 106.792 15.3927 106.408 15.03C106.035 14.6674 105.555 14.486 104.968 14.486C104.36 14.486 103.859 14.678 103.464 15.062C103.08 15.4354 102.84 15.9847 102.744 16.71Z" fill="#4493F8"/>
<path d="M91.6733 21.75V12.694C91.6733 11.99 91.8706 11.43 92.2653 11.014C92.6599 10.598 93.2786 10.39 94.1213 10.39H95.6253V11.782H94.3453C94.0146 11.782 93.7693 11.8727 93.6093 12.054C93.4493 12.2247 93.3693 12.47 93.3693 12.79V21.75H91.6733ZM90.4893 14.726V13.35H95.4973V14.726H90.4893ZM98.9693 21.75C98.4146 21.75 97.9666 21.606 97.6253 21.318C97.2839 21.03 97.1133 20.5713 97.1133 19.942V10.39H98.8093V19.782C98.8093 19.974 98.8573 20.118 98.9533 20.214C99.0599 20.31 99.2093 20.358 99.4013 20.358H100.073V21.75H98.9693Z" fill="#4493F8"/>
<path d="M81.5593 24.15V13.238H83.1593L83.2073 15.062L83.0153 14.966C83.2287 14.3367 83.5807 13.862 84.0713 13.542C84.562 13.2114 85.1273 13.046 85.7673 13.046C86.5993 13.046 87.282 13.254 87.8153 13.67C88.3593 14.0754 88.7593 14.614 89.0153 15.286C89.282 15.958 89.4153 16.694 89.4153 17.494C89.4153 18.294 89.282 19.03 89.0153 19.702C88.7593 20.374 88.3593 20.918 87.8153 21.334C87.282 21.7394 86.5993 21.942 85.7673 21.942C85.3407 21.942 84.9407 21.8674 84.5673 21.718C84.194 21.5687 83.874 21.3607 83.6073 21.094C83.3513 20.8167 83.17 20.4914 83.0633 20.118L83.2553 19.926V24.15H81.5593ZM85.4633 20.47C86.146 20.47 86.6793 20.2087 87.0633 19.686C87.458 19.1634 87.6553 18.4327 87.6553 17.494C87.6553 16.5554 87.458 15.8247 87.0633 15.302C86.6793 14.7794 86.146 14.518 85.4633 14.518C85.0153 14.518 84.626 14.63 84.2953 14.854C83.9647 15.0674 83.7087 15.398 83.5273 15.846C83.346 16.294 83.2553 16.8434 83.2553 17.494C83.2553 18.1447 83.3407 18.694 83.5113 19.142C83.6927 19.59 83.9487 19.926 84.2793 20.15C84.6207 20.3634 85.0153 20.47 85.4633 20.47Z" fill="#4493F8"/>
<path d="M72.4031 21.75V13.238H73.9551L74.0191 15.51L73.8111 15.398C73.9071 14.8434 74.0884 14.3954 74.3551 14.054C74.6217 13.7127 74.9471 13.462 75.3311 13.302C75.7151 13.1314 76.1311 13.046 76.5791 13.046C77.2191 13.046 77.7471 13.19 78.1631 13.478C78.5897 13.7554 78.9097 14.1394 79.1231 14.63C79.3471 15.11 79.4591 15.6594 79.4591 16.278V21.75H77.7631V16.79C77.7631 16.2887 77.7097 15.8674 77.6031 15.526C77.4964 15.1847 77.3204 14.9234 77.0751 14.742C76.8297 14.5607 76.5097 14.47 76.1151 14.47C75.5177 14.47 75.0324 14.6674 74.6591 15.062C74.2857 15.4567 74.0991 16.0327 74.0991 16.79V21.75H72.4031Z" fill="#4493F8"/>
<path d="M68.1687 21.7501V13.2381H69.8647V21.7501H68.1687ZM68.1367 12.0061V10.3101H69.8967V12.0061H68.1367Z" fill="#4493F8"/>
<path d="M54.1687 21.75V13.238H55.7207L55.7687 15.35L55.5767 15.286C55.6727 14.8167 55.838 14.4167 56.0727 14.086C56.318 13.7554 56.6167 13.4994 56.9687 13.318C57.3207 13.1367 57.7047 13.046 58.1207 13.046C58.846 13.046 59.438 13.254 59.8967 13.67C60.3554 14.0754 60.6434 14.6354 60.7607 15.35H60.4887C60.5847 14.8487 60.7447 14.4327 60.9687 14.102C61.2034 13.7607 61.502 13.4994 61.8647 13.318C62.2274 13.1367 62.638 13.046 63.0967 13.046C63.694 13.046 64.2007 13.174 64.6167 13.43C65.0434 13.6754 65.3634 14.038 65.5767 14.518C65.8007 14.998 65.9127 15.5847 65.9127 16.278V21.75H64.2167V16.694C64.2167 15.958 64.0834 15.4034 63.8167 15.03C63.55 14.6567 63.1447 14.47 62.6007 14.47C62.2487 14.47 61.9394 14.5607 61.6727 14.742C61.406 14.9234 61.198 15.1847 61.0487 15.526C60.91 15.8674 60.8407 16.278 60.8407 16.758V21.75H59.2247V16.758C59.2247 16.0327 59.102 15.4727 58.8567 15.078C58.622 14.6727 58.2167 14.47 57.6407 14.47C57.278 14.47 56.9634 14.5607 56.6967 14.742C56.4407 14.9234 56.238 15.19 56.0887 15.542C55.9394 15.8834 55.8647 16.2887 55.8647 16.758V21.75H54.1687Z" fill="#4493F8"/>
<path d="M47.5529 21.942C46.6675 21.942 45.9582 21.7394 45.4249 21.334C44.9022 20.9287 44.6409 20.358 44.6409 19.622C44.6409 18.886 44.8595 18.3154 45.2969 17.91C45.7449 17.494 46.4329 17.1954 47.3609 17.014L50.2889 16.454C50.2889 15.7927 50.1342 15.302 49.8249 14.982C49.5155 14.6514 49.0569 14.486 48.4489 14.486C47.9049 14.486 47.4782 14.6087 47.1689 14.854C46.8595 15.0887 46.6462 15.4407 46.5289 15.91L44.7849 15.798C44.9449 14.9447 45.3395 14.2727 45.9689 13.782C46.6089 13.2914 47.4355 13.046 48.4489 13.046C49.6009 13.046 50.4755 13.3554 51.0729 13.974C51.6809 14.582 51.9849 15.4407 51.9849 16.55V19.862C51.9849 20.0647 52.0169 20.2087 52.0809 20.294C52.1555 20.3687 52.2729 20.406 52.4329 20.406H52.7369V21.75C52.6835 21.7607 52.5982 21.7714 52.4809 21.782C52.3635 21.7927 52.2409 21.798 52.1129 21.798C51.7502 21.798 51.4355 21.7394 51.1689 21.622C50.9129 21.5047 50.7209 21.3127 50.5929 21.046C50.4649 20.7687 50.4009 20.4007 50.4009 19.942L50.5769 20.022C50.4915 20.3954 50.3049 20.726 50.0169 21.014C49.7395 21.302 49.3822 21.5314 48.9449 21.702C48.5182 21.862 48.0542 21.942 47.5529 21.942ZM47.8249 20.598C48.3369 20.598 48.7742 20.502 49.1369 20.31C49.4995 20.1074 49.7822 19.83 49.9849 19.478C50.1875 19.126 50.2889 18.726 50.2889 18.278V17.734L47.7929 18.214C47.2809 18.31 46.9182 18.4647 46.7049 18.678C46.5022 18.8807 46.4009 19.142 46.4009 19.462C46.4009 19.8247 46.5235 20.1074 46.7689 20.31C47.0249 20.502 47.3769 20.598 47.8249 20.598Z" fill="#4493F8"/>
<path d="M39.5142 24.1501V22.7581H40.2822C40.5702 22.7581 40.7942 22.6941 40.9542 22.5661C41.1248 22.4381 41.2102 22.1927 41.2102 21.8301V13.2381H42.9222V21.8941C42.9222 22.7047 42.7355 23.2807 42.3622 23.6221C41.9995 23.9741 41.3915 24.1501 40.5382 24.1501H39.5142ZM41.1942 12.0061V10.3101H42.9542V12.0061H41.1942Z" fill="#4493F8"/>
<path d="M31.8406 21.75V13.238H33.3926L33.4566 15.51L33.2486 15.398C33.3446 14.8434 33.5259 14.3954 33.7926 14.054C34.0592 13.7127 34.3846 13.462 34.7686 13.302C35.1526 13.1314 35.5686 13.046 36.0166 13.046C36.6566 13.046 37.1846 13.19 37.6006 13.478C38.0272 13.7554 38.3472 14.1394 38.5606 14.63C38.7846 15.11 38.8966 15.6594 38.8966 16.278V21.75H37.2006V16.79C37.2006 16.2887 37.1472 15.8674 37.0406 15.526C36.9339 15.1847 36.7579 14.9234 36.5126 14.742C36.2672 14.5607 35.9472 14.47 35.5526 14.47C34.9552 14.47 34.4699 14.6674 34.0966 15.062C33.7232 15.4567 33.5366 16.0327 33.5366 16.79V21.75H31.8406Z" fill="#4493F8"/>
<path d="M26.2822 21.942C25.4502 21.942 24.7302 21.7607 24.1222 21.398C23.5249 21.0354 23.0609 20.518 22.7302 19.846C22.4102 19.174 22.2502 18.39 22.2502 17.494C22.2502 16.598 22.4102 15.8194 22.7302 15.158C23.0609 14.486 23.5249 13.9687 24.1222 13.606C24.7196 13.2327 25.4236 13.046 26.2342 13.046C27.0022 13.046 27.6796 13.2274 28.2662 13.59C28.8529 13.942 29.3062 14.454 29.6262 15.126C29.9569 15.798 30.1222 16.6087 30.1222 17.558V17.99H24.0102C24.0529 18.822 24.2716 19.446 24.6662 19.862C25.0716 20.278 25.6156 20.486 26.2982 20.486C26.7996 20.486 27.2156 20.3687 27.5462 20.134C27.8769 19.8994 28.1062 19.5847 28.2342 19.19L29.9942 19.302C29.7702 20.0914 29.3276 20.7314 28.6662 21.222C28.0156 21.702 27.2209 21.942 26.2822 21.942ZM24.0102 16.71H28.3302C28.2769 15.9527 28.0582 15.3927 27.6742 15.03C27.3009 14.6674 26.8209 14.486 26.2342 14.486C25.6262 14.486 25.1249 14.678 24.7302 15.062C24.3462 15.4354 24.1062 15.9847 24.0102 16.71Z" fill="#4493F8"/>
<path d="M17.44 21.942C16.8533 21.942 16.3306 21.814 15.872 21.558C15.424 21.2913 15.0773 20.9287 14.832 20.47L14.784 21.75H13.2V10.39H14.896V14.438C15.12 14.0647 15.4506 13.7393 15.888 13.462C16.336 13.1847 16.8533 13.046 17.44 13.046C18.176 13.046 18.816 13.2273 19.36 13.59C19.904 13.9527 20.32 14.47 20.608 15.142C20.9066 15.8033 21.056 16.5873 21.056 17.494C21.056 18.4007 20.9066 19.19 20.608 19.862C20.32 20.5233 19.904 21.0353 19.36 21.398C18.816 21.7607 18.176 21.942 17.44 21.942ZM17.168 20.47C17.8186 20.47 18.336 20.2087 18.72 19.686C19.104 19.1527 19.296 18.422 19.296 17.494C19.296 16.566 19.104 15.8407 18.72 15.318C18.336 14.7847 17.824 14.518 17.184 14.518C16.704 14.518 16.2933 14.6353 15.952 14.87C15.6106 15.1047 15.3493 15.446 15.168 15.894C14.9866 16.3313 14.896 16.8647 14.896 17.494C14.896 18.102 14.9866 18.63 15.168 19.078C15.3493 19.526 15.6106 19.8727 15.952 20.118C16.2933 20.3527 16.6986 20.47 17.168 20.47Z" fill="#4493F8"/>
</svg>
