<svg width="137" height="32" viewBox="0 0 137 32" fill="none" xmlns="http://www.w3.org/2000/svg">
<rect x="0.5" y="0.5" width="136" height="31" rx="15.5" stroke="#4493F8"/>
<path d="M120.145 21.168C119.417 21.168 118.787 21.0093 118.255 20.692C117.733 20.3746 117.327 19.922 117.037 19.334C116.757 18.746 116.617 18.06 116.617 17.276C116.617 16.492 116.757 15.8106 117.037 15.232C117.327 14.644 117.733 14.1913 118.255 13.874C118.778 13.5473 119.394 13.384 120.103 13.384C120.775 13.384 121.368 13.5426 121.881 13.86C122.395 14.168 122.791 14.616 123.071 15.204C123.361 15.792 123.505 16.5013 123.505 17.332V17.71H118.157C118.195 18.438 118.386 18.984 118.731 19.348C119.086 19.712 119.562 19.894 120.159 19.894C120.598 19.894 120.962 19.7913 121.251 19.586C121.541 19.3806 121.741 19.1053 121.853 18.76L123.393 18.858C123.197 19.5486 122.81 20.1086 122.231 20.538C121.662 20.958 120.967 21.168 120.145 21.168ZM118.157 16.59H121.937C121.891 15.9273 121.699 15.4373 121.363 15.12C121.037 14.8026 120.617 14.644 120.103 14.644C119.571 14.644 119.133 14.812 118.787 15.148C118.451 15.4746 118.241 15.9553 118.157 16.59Z" fill="#4493F8"/>
<path d="M114.398 21C113.689 21 113.166 20.8367 112.83 20.51C112.494 20.1833 112.326 19.6747 112.326 18.984V11.802H113.81V18.872C113.81 19.2173 113.885 19.4553 114.034 19.586C114.184 19.7167 114.412 19.782 114.72 19.782H115.784V21H114.398ZM111.192 14.77V13.552H115.784V14.77H111.192Z" fill="#4493F8"/>
<path d="M108.466 21V13.552H109.95V21H108.466ZM108.438 12.474V10.99H109.978V12.474H108.438Z" fill="#4493F8"/>
<path d="M103.912 21.168C103.212 21.168 102.619 21.0606 102.134 20.846C101.658 20.6313 101.289 20.3373 101.028 19.964C100.767 19.5813 100.617 19.1426 100.58 18.648L102.106 18.578C102.181 18.9886 102.358 19.3153 102.638 19.558C102.918 19.8006 103.343 19.922 103.912 19.922C104.379 19.922 104.747 19.8473 105.018 19.698C105.289 19.5486 105.424 19.3106 105.424 18.984C105.424 18.8066 105.377 18.6573 105.284 18.536C105.2 18.4053 105.032 18.298 104.78 18.214C104.528 18.1206 104.155 18.032 103.66 17.948C102.923 17.808 102.344 17.6446 101.924 17.458C101.504 17.2713 101.205 17.0333 101.028 16.744C100.851 16.4546 100.762 16.1046 100.762 15.694C100.762 15.0126 101.014 14.4573 101.518 14.028C102.031 13.5986 102.769 13.384 103.73 13.384C104.374 13.384 104.915 13.496 105.354 13.72C105.793 13.9346 106.133 14.2286 106.376 14.602C106.628 14.966 106.787 15.3766 106.852 15.834L105.326 15.918C105.279 15.6566 105.186 15.4326 105.046 15.246C104.915 15.05 104.738 14.9006 104.514 14.798C104.29 14.686 104.024 14.63 103.716 14.63C103.24 14.63 102.885 14.7233 102.652 14.91C102.419 15.0966 102.302 15.3393 102.302 15.638C102.302 15.862 102.353 16.044 102.456 16.184C102.568 16.324 102.745 16.4406 102.988 16.534C103.231 16.618 103.553 16.6926 103.954 16.758C104.729 16.8886 105.335 17.052 105.774 17.248C106.213 17.4346 106.521 17.668 106.698 17.948C106.875 18.228 106.964 18.5686 106.964 18.97C106.964 19.4366 106.833 19.8333 106.572 20.16C106.311 20.4866 105.951 20.7386 105.494 20.916C105.037 21.084 104.509 21.168 103.912 21.168Z" fill="#4493F8"/>
<path d="M96.3711 21.168C95.8578 21.168 95.4005 21.056 94.9991 20.832C94.6071 20.5987 94.3038 20.2813 94.0891 19.88L94.0471 21H92.6611V11.06H94.1451V14.602C94.3411 14.2753 94.6305 13.9907 95.0131 13.748C95.4051 13.5053 95.8578 13.384 96.3711 13.384C97.0151 13.384 97.5751 13.5427 98.0511 13.86C98.5271 14.1773 98.8911 14.63 99.1431 15.218C99.4045 15.7967 99.5351 16.4827 99.5351 17.276C99.5351 18.0693 99.4045 18.76 99.1431 19.348C98.8911 19.9267 98.5271 20.3747 98.0511 20.692C97.5751 21.0093 97.0151 21.168 96.3711 21.168ZM96.1331 19.88C96.7025 19.88 97.1551 19.6513 97.4911 19.194C97.8271 18.7273 97.9951 18.088 97.9951 17.276C97.9951 16.464 97.8271 15.8293 97.4911 15.372C97.1551 14.9053 96.7071 14.672 96.1471 14.672C95.7271 14.672 95.3678 14.7747 95.0691 14.98C94.7705 15.1853 94.5418 15.484 94.3831 15.876C94.2245 16.2587 94.1451 16.7253 94.1451 17.276C94.1451 17.808 94.2245 18.27 94.3831 18.662C94.5418 19.054 94.7705 19.3573 95.0691 19.572C95.3678 19.7773 95.7225 19.88 96.1331 19.88Z" fill="#4493F8"/>
<path d="M87.7975 21.168C87.0695 21.168 86.4395 21.0093 85.9075 20.692C85.3849 20.3746 84.9789 19.922 84.6895 19.334C84.4095 18.746 84.2695 18.06 84.2695 17.276C84.2695 16.492 84.4095 15.8106 84.6895 15.232C84.9789 14.644 85.3849 14.1913 85.9075 13.874C86.4302 13.5473 87.0462 13.384 87.7555 13.384C88.4275 13.384 89.0202 13.5426 89.5335 13.86C90.0469 14.168 90.4435 14.616 90.7235 15.204C91.0129 15.792 91.1575 16.5013 91.1575 17.332V17.71H85.8095C85.8469 18.438 86.0382 18.984 86.3835 19.348C86.7382 19.712 87.2142 19.894 87.8115 19.894C88.2502 19.894 88.6142 19.7913 88.9035 19.586C89.1929 19.3806 89.3935 19.1053 89.5055 18.76L91.0455 18.858C90.8495 19.5486 90.4622 20.1086 89.8835 20.538C89.3142 20.958 88.6189 21.168 87.7975 21.168ZM85.8095 16.59H89.5895C89.5429 15.9273 89.3515 15.4373 89.0155 15.12C88.6889 14.8026 88.2689 14.644 87.7555 14.644C87.2235 14.644 86.7849 14.812 86.4395 15.148C86.1035 15.4746 85.8935 15.9553 85.8095 16.59Z" fill="#4493F8"/>
<path d="M75.0331 21L72.7651 13.552H74.3191L75.9151 19.376L77.5531 13.552H78.9531L80.5911 19.376L82.2011 13.552H83.7551L81.4871 21H79.8211L78.2531 15.68L76.6851 21H75.0331Z" fill="#4493F8"/>
<path d="M67.7754 21C67.29 21 66.898 20.874 66.5994 20.622C66.3007 20.37 66.1514 19.9687 66.1514 19.418V11.06H67.6354V19.278C67.6354 19.446 67.6774 19.572 67.7614 19.656C67.8547 19.74 67.9854 19.782 68.1534 19.782H68.7414V21H67.7754Z" fill="#4493F8"/>
<path d="M60.4582 21.168C59.6835 21.168 59.0628 20.9906 58.5962 20.636C58.1388 20.2813 57.9102 19.782 57.9102 19.138C57.9102 18.494 58.1015 17.9946 58.4842 17.64C58.8762 17.276 59.4782 17.0146 60.2902 16.856L62.8522 16.366C62.8522 15.7873 62.7168 15.358 62.4462 15.078C62.1755 14.7886 61.7742 14.644 61.2422 14.644C60.7662 14.644 60.3928 14.7513 60.1222 14.966C59.8515 15.1713 59.6648 15.4793 59.5622 15.89L58.0362 15.792C58.1762 15.0453 58.5215 14.4573 59.0722 14.028C59.6322 13.5986 60.3555 13.384 61.2422 13.384C62.2502 13.384 63.0155 13.6546 63.5382 14.196C64.0702 14.728 64.3362 15.4793 64.3362 16.45V19.348C64.3362 19.5253 64.3642 19.6513 64.4202 19.726C64.4855 19.7913 64.5882 19.824 64.7282 19.824H64.9942V21C64.9475 21.0093 64.8728 21.0186 64.7702 21.028C64.6675 21.0373 64.5602 21.042 64.4482 21.042C64.1308 21.042 63.8555 20.9906 63.6222 20.888C63.3982 20.7853 63.2302 20.6173 63.1182 20.384C63.0062 20.1413 62.9502 19.8193 62.9502 19.418L63.1042 19.488C63.0295 19.8146 62.8662 20.104 62.6142 20.356C62.3715 20.608 62.0588 20.8086 61.6762 20.958C61.3028 21.098 60.8968 21.168 60.4582 21.168ZM60.6962 19.992C61.1442 19.992 61.5268 19.908 61.8442 19.74C62.1615 19.5626 62.4088 19.32 62.5862 19.012C62.7635 18.704 62.8522 18.354 62.8522 17.962V17.486L60.6682 17.906C60.2202 17.99 59.9028 18.1253 59.7162 18.312C59.5388 18.4893 59.4502 18.718 59.4502 18.998C59.4502 19.3153 59.5575 19.5626 59.7722 19.74C59.9962 19.908 60.3042 19.992 60.6962 19.992Z" fill="#4493F8"/>
<path d="M50.251 21V13.552H51.609L51.665 15.54L51.483 15.442C51.567 14.9566 51.7256 14.5646 51.959 14.266C52.1923 13.9673 52.477 13.748 52.813 13.608C53.149 13.4586 53.513 13.384 53.905 13.384C54.465 13.384 54.927 13.51 55.291 13.762C55.6643 14.0046 55.9443 14.3406 56.131 14.77C56.327 15.19 56.425 15.6706 56.425 16.212V21H54.941V16.66C54.941 16.2213 54.8943 15.8526 54.801 15.554C54.7076 15.2553 54.5536 15.0266 54.339 14.868C54.1243 14.7093 53.8443 14.63 53.499 14.63C52.9763 14.63 52.5516 14.8026 52.225 15.148C51.8983 15.4933 51.735 15.9973 51.735 16.66V21H50.251Z" fill="#4493F8"/>
<path d="M45.2233 21.168C44.514 21.168 43.8933 21.0093 43.3613 20.692C42.8293 20.3746 42.4186 19.922 42.1293 19.334C41.84 18.746 41.6953 18.06 41.6953 17.276C41.6953 16.4826 41.84 15.7966 42.1293 15.218C42.4186 14.6393 42.8293 14.1913 43.3613 13.874C43.8933 13.5473 44.514 13.384 45.2233 13.384C45.9326 13.384 46.5533 13.5473 47.0853 13.874C47.6173 14.1913 48.028 14.6393 48.3173 15.218C48.6066 15.7966 48.7513 16.4826 48.7513 17.276C48.7513 18.06 48.6066 18.746 48.3173 19.334C48.028 19.922 47.6173 20.3746 47.0853 20.692C46.5533 21.0093 45.9326 21.168 45.2233 21.168ZM45.2233 19.88C45.858 19.88 46.348 19.6513 46.6933 19.194C47.0386 18.7273 47.2113 18.088 47.2113 17.276C47.2113 16.464 47.0386 15.8293 46.6933 15.372C46.348 14.9053 45.858 14.672 45.2233 14.672C44.598 14.672 44.108 14.9053 43.7533 15.372C43.408 15.8293 43.2353 16.464 43.2353 17.276C43.2353 18.088 43.408 18.7273 43.7533 19.194C44.108 19.6513 44.598 19.88 45.2233 19.88Z" fill="#4493F8"/>
<path d="M37.6035 21.168C36.9035 21.168 36.3108 21.0606 35.8255 20.846C35.3495 20.6313 34.9808 20.3373 34.7195 19.964C34.4582 19.5813 34.3088 19.1426 34.2715 18.648L35.7975 18.578C35.8722 18.9886 36.0495 19.3153 36.3295 19.558C36.6095 19.8006 37.0342 19.922 37.6035 19.922C38.0702 19.922 38.4388 19.8473 38.7095 19.698C38.9802 19.5486 39.1155 19.3106 39.1155 18.984C39.1155 18.8066 39.0688 18.6573 38.9755 18.536C38.8915 18.4053 38.7235 18.298 38.4715 18.214C38.2195 18.1206 37.8462 18.032 37.3515 17.948C36.6142 17.808 36.0355 17.6446 35.6155 17.458C35.1955 17.2713 34.8968 17.0333 34.7195 16.744C34.5422 16.4546 34.4535 16.1046 34.4535 15.694C34.4535 15.0126 34.7055 14.4573 35.2095 14.028C35.7228 13.5986 36.4602 13.384 37.4215 13.384C38.0655 13.384 38.6068 13.496 39.0455 13.72C39.4842 13.9346 39.8248 14.2286 40.0675 14.602C40.3195 14.966 40.4782 15.3766 40.5435 15.834L39.0175 15.918C38.9708 15.6566 38.8775 15.4326 38.7375 15.246C38.6068 15.05 38.4295 14.9006 38.2055 14.798C37.9815 14.686 37.7155 14.63 37.4075 14.63C36.9315 14.63 36.5768 14.7233 36.3435 14.91C36.1102 15.0966 35.9935 15.3393 35.9935 15.638C35.9935 15.862 36.0448 16.044 36.1475 16.184C36.2595 16.324 36.4368 16.4406 36.6795 16.534C36.9222 16.618 37.2442 16.6926 37.6455 16.758C38.4202 16.8886 39.0268 17.052 39.4655 17.248C39.9042 17.4346 40.2122 17.668 40.3895 17.948C40.5668 18.228 40.6555 18.5686 40.6555 18.97C40.6555 19.4366 40.5248 19.8333 40.2635 20.16C40.0022 20.4866 39.6428 20.7386 39.1855 20.916C38.7282 21.084 38.2008 21.168 37.6035 21.168Z" fill="#4493F8"/>
<path d="M29.7842 21V13.552H31.1422L31.1982 15.526L31.0722 15.484C31.1748 14.812 31.3802 14.322 31.6882 14.014C32.0055 13.706 32.4302 13.552 32.9622 13.552H33.6762V14.882H32.9622C32.5888 14.882 32.2762 14.9427 32.0242 15.064C31.7722 15.1853 31.5808 15.372 31.4502 15.624C31.3288 15.876 31.2682 16.2027 31.2682 16.604V21H29.7842Z" fill="#4493F8"/>
<path d="M24.9206 21.168C24.1926 21.168 23.5626 21.0093 23.0306 20.692C22.5079 20.3746 22.1019 19.922 21.8126 19.334C21.5326 18.746 21.3926 18.06 21.3926 17.276C21.3926 16.492 21.5326 15.8106 21.8126 15.232C22.1019 14.644 22.5079 14.1913 23.0306 13.874C23.5532 13.5473 24.1692 13.384 24.8786 13.384C25.5506 13.384 26.1432 13.5426 26.6566 13.86C27.1699 14.168 27.5666 14.616 27.8466 15.204C28.1359 15.792 28.2806 16.5013 28.2806 17.332V17.71H22.9326C22.9699 18.438 23.1612 18.984 23.5066 19.348C23.8612 19.712 24.3372 19.894 24.9346 19.894C25.3732 19.894 25.7372 19.7913 26.0266 19.586C26.3159 19.3806 26.5166 19.1053 26.6286 18.76L28.1686 18.858C27.9726 19.5486 27.5852 20.1086 27.0066 20.538C26.4372 20.958 25.7419 21.168 24.9206 21.168ZM22.9326 16.59H26.7126C26.6659 15.9273 26.4746 15.4373 26.1386 15.12C25.8119 14.8026 25.3919 14.644 24.8786 14.644C24.3466 14.644 23.9079 14.812 23.5626 15.148C23.2266 15.4746 23.0166 15.9553 22.9326 16.59Z" fill="#4493F8"/>
<path d="M13.2041 21V11.06H16.9141C18.0528 11.06 18.9394 11.3353 19.5741 11.886C20.2088 12.4273 20.5261 13.1833 20.5261 14.154C20.5261 14.798 20.3814 15.358 20.0921 15.834C19.8028 16.3007 19.3874 16.66 18.8461 16.912C18.3141 17.1547 17.6701 17.276 16.9141 17.276H14.7161V21H13.2041ZM14.7161 15.904H16.8721C17.5534 15.904 18.0714 15.7593 18.4261 15.47C18.7808 15.1713 18.9581 14.7327 18.9581 14.154C18.9581 13.5847 18.7808 13.16 18.4261 12.88C18.0714 12.5907 17.5534 12.446 16.8721 12.446H14.7161V15.904Z" fill="#4493F8"/>
</svg>
