<svg width="138" height="32" viewBox="0 0 138 32" fill="none" xmlns="http://www.w3.org/2000/svg">
<rect x="0.5" y="0.5" width="137" height="31" rx="15.5" stroke="#4493F8"/>
<path d="M121.854 21.168C121.126 21.168 120.496 21.0093 119.964 20.692C119.442 20.3746 119.036 19.922 118.746 19.334C118.466 18.746 118.326 18.06 118.326 17.276C118.326 16.492 118.466 15.8106 118.746 15.232C119.036 14.644 119.442 14.1913 119.964 13.874C120.487 13.5473 121.103 13.384 121.812 13.384C122.484 13.384 123.077 13.5426 123.59 13.86C124.104 14.168 124.5 14.616 124.78 15.204C125.07 15.792 125.214 16.5013 125.214 17.332V17.71H119.866C119.904 18.438 120.095 18.984 120.44 19.348C120.795 19.712 121.271 19.894 121.868 19.894C122.307 19.894 122.671 19.7913 122.96 19.586C123.25 19.3806 123.45 19.1053 123.562 18.76L125.102 18.858C124.906 19.5486 124.519 20.1086 123.94 20.538C123.371 20.958 122.676 21.168 121.854 21.168ZM119.866 16.59H123.646C123.6 15.9273 123.408 15.4373 123.072 15.12C122.746 14.8026 122.326 14.644 121.812 14.644C121.28 14.644 120.842 14.812 120.496 15.148C120.16 15.4746 119.95 15.9553 119.866 16.59Z" fill="#4493F8"/>
<path d="M116.107 21C115.398 21 114.875 20.8367 114.539 20.51C114.203 20.1833 114.035 19.6747 114.035 18.984V11.802H115.519V18.872C115.519 19.2173 115.594 19.4553 115.743 19.586C115.893 19.7167 116.121 19.782 116.429 19.782H117.493V21H116.107ZM112.901 14.77V13.552H117.493V14.77H112.901Z" fill="#4493F8"/>
<path d="M110.175 21V13.552H111.659V21H110.175ZM110.147 12.474V10.99H111.687V12.474H110.147Z" fill="#4493F8"/>
<path d="M105.621 21.168C104.921 21.168 104.328 21.0606 103.843 20.846C103.367 20.6313 102.998 20.3373 102.737 19.964C102.476 19.5813 102.326 19.1426 102.289 18.648L103.815 18.578C103.89 18.9886 104.067 19.3153 104.347 19.558C104.627 19.8006 105.052 19.922 105.621 19.922C106.088 19.922 106.456 19.8473 106.727 19.698C106.998 19.5486 107.133 19.3106 107.133 18.984C107.133 18.8066 107.086 18.6573 106.993 18.536C106.909 18.4053 106.741 18.298 106.489 18.214C106.237 18.1206 105.864 18.032 105.369 17.948C104.632 17.808 104.053 17.6446 103.633 17.458C103.213 17.2713 102.914 17.0333 102.737 16.744C102.56 16.4546 102.471 16.1046 102.471 15.694C102.471 15.0126 102.723 14.4573 103.227 14.028C103.74 13.5986 104.478 13.384 105.439 13.384C106.083 13.384 106.624 13.496 107.063 13.72C107.502 13.9346 107.842 14.2286 108.085 14.602C108.337 14.966 108.496 15.3766 108.561 15.834L107.035 15.918C106.988 15.6566 106.895 15.4326 106.755 15.246C106.624 15.05 106.447 14.9006 106.223 14.798C105.999 14.686 105.733 14.63 105.425 14.63C104.949 14.63 104.594 14.7233 104.361 14.91C104.128 15.0966 104.011 15.3393 104.011 15.638C104.011 15.862 104.062 16.044 104.165 16.184C104.277 16.324 104.454 16.4406 104.697 16.534C104.94 16.618 105.262 16.6926 105.663 16.758C106.438 16.8886 107.044 17.052 107.483 17.248C107.922 17.4346 108.23 17.668 108.407 17.948C108.584 18.228 108.673 18.5686 108.673 18.97C108.673 19.4366 108.542 19.8333 108.281 20.16C108.02 20.4866 107.66 20.7386 107.203 20.916C106.746 21.084 106.218 21.168 105.621 21.168Z" fill="#4493F8"/>
<path d="M98.0801 21.168C97.5668 21.168 97.1094 21.056 96.7081 20.832C96.3161 20.5987 96.0128 20.2813 95.7981 19.88L95.7561 21H94.3701V11.06H95.8541V14.602C96.0501 14.2753 96.3394 13.9907 96.7221 13.748C97.1141 13.5053 97.5668 13.384 98.0801 13.384C98.7241 13.384 99.2841 13.5427 99.7601 13.86C100.236 14.1773 100.6 14.63 100.852 15.218C101.113 15.7967 101.244 16.4827 101.244 17.276C101.244 18.0693 101.113 18.76 100.852 19.348C100.6 19.9267 100.236 20.3747 99.7601 20.692C99.2841 21.0093 98.7241 21.168 98.0801 21.168ZM97.8421 19.88C98.4115 19.88 98.8641 19.6513 99.2001 19.194C99.5361 18.7273 99.7041 18.088 99.7041 17.276C99.7041 16.464 99.5361 15.8293 99.2001 15.372C98.8641 14.9053 98.4161 14.672 97.8561 14.672C97.4361 14.672 97.0768 14.7747 96.7781 14.98C96.4794 15.1853 96.2508 15.484 96.0921 15.876C95.9335 16.2587 95.8541 16.7253 95.8541 17.276C95.8541 17.808 95.9335 18.27 96.0921 18.662C96.2508 19.054 96.4794 19.3573 96.7781 19.572C97.0768 19.7773 97.4315 19.88 97.8421 19.88Z" fill="#4493F8"/>
<path d="M89.5065 21.168C88.7785 21.168 88.1485 21.0093 87.6165 20.692C87.0938 20.3746 86.6879 19.922 86.3985 19.334C86.1185 18.746 85.9785 18.06 85.9785 17.276C85.9785 16.492 86.1185 15.8106 86.3985 15.232C86.6879 14.644 87.0938 14.1913 87.6165 13.874C88.1392 13.5473 88.7552 13.384 89.4645 13.384C90.1365 13.384 90.7292 13.5426 91.2425 13.86C91.7558 14.168 92.1525 14.616 92.4325 15.204C92.7219 15.792 92.8665 16.5013 92.8665 17.332V17.71H87.5185C87.5558 18.438 87.7472 18.984 88.0925 19.348C88.4472 19.712 88.9232 19.894 89.5205 19.894C89.9592 19.894 90.3232 19.7913 90.6125 19.586C90.9019 19.3806 91.1025 19.1053 91.2145 18.76L92.7545 18.858C92.5585 19.5486 92.1712 20.1086 91.5925 20.538C91.0232 20.958 90.3278 21.168 89.5065 21.168ZM87.5185 16.59H91.2985C91.2518 15.9273 91.0605 15.4373 90.7245 15.12C90.3979 14.8026 89.9778 14.644 89.4645 14.644C88.9325 14.644 88.4939 14.812 88.1485 15.148C87.8125 15.4746 87.6025 15.9553 87.5185 16.59Z" fill="#4493F8"/>
<path d="M75.6213 21L72.9893 11.06H74.5993L76.5313 18.914L78.4633 11.06H80.0033L81.9353 18.914L83.8533 11.06H85.4913L82.8453 21H81.0813L79.2333 13.748L77.3853 21H75.6213Z" fill="#4493F8"/>
<path d="M67.7754 21C67.29 21 66.898 20.874 66.5994 20.622C66.3007 20.37 66.1514 19.9687 66.1514 19.418V11.06H67.6354V19.278C67.6354 19.446 67.6774 19.572 67.7614 19.656C67.8547 19.74 67.9854 19.782 68.1534 19.782H68.7414V21H67.7754Z" fill="#4493F8"/>
<path d="M60.4582 21.168C59.6835 21.168 59.0628 20.9906 58.5962 20.636C58.1388 20.2813 57.9102 19.782 57.9102 19.138C57.9102 18.494 58.1015 17.9946 58.4842 17.64C58.8762 17.276 59.4782 17.0146 60.2902 16.856L62.8522 16.366C62.8522 15.7873 62.7168 15.358 62.4462 15.078C62.1755 14.7886 61.7742 14.644 61.2422 14.644C60.7662 14.644 60.3928 14.7513 60.1222 14.966C59.8515 15.1713 59.6648 15.4793 59.5622 15.89L58.0362 15.792C58.1762 15.0453 58.5215 14.4573 59.0722 14.028C59.6322 13.5986 60.3555 13.384 61.2422 13.384C62.2502 13.384 63.0155 13.6546 63.5382 14.196C64.0702 14.728 64.3362 15.4793 64.3362 16.45V19.348C64.3362 19.5253 64.3642 19.6513 64.4202 19.726C64.4855 19.7913 64.5882 19.824 64.7282 19.824H64.9942V21C64.9475 21.0093 64.8728 21.0186 64.7702 21.028C64.6675 21.0373 64.5602 21.042 64.4482 21.042C64.1308 21.042 63.8555 20.9906 63.6222 20.888C63.3982 20.7853 63.2302 20.6173 63.1182 20.384C63.0062 20.1413 62.9502 19.8193 62.9502 19.418L63.1042 19.488C63.0295 19.8146 62.8662 20.104 62.6142 20.356C62.3715 20.608 62.0588 20.8086 61.6762 20.958C61.3028 21.098 60.8968 21.168 60.4582 21.168ZM60.6962 19.992C61.1442 19.992 61.5268 19.908 61.8442 19.74C62.1615 19.5626 62.4088 19.32 62.5862 19.012C62.7635 18.704 62.8522 18.354 62.8522 17.962V17.486L60.6682 17.906C60.2202 17.99 59.9028 18.1253 59.7162 18.312C59.5388 18.4893 59.4502 18.718 59.4502 18.998C59.4502 19.3153 59.5575 19.5626 59.7722 19.74C59.9962 19.908 60.3042 19.992 60.6962 19.992Z" fill="#4493F8"/>
<path d="M50.251 21V13.552H51.609L51.665 15.54L51.483 15.442C51.567 14.9566 51.7256 14.5646 51.959 14.266C52.1923 13.9673 52.477 13.748 52.813 13.608C53.149 13.4586 53.513 13.384 53.905 13.384C54.465 13.384 54.927 13.51 55.291 13.762C55.6643 14.0046 55.9443 14.3406 56.131 14.77C56.327 15.19 56.425 15.6706 56.425 16.212V21H54.941V16.66C54.941 16.2213 54.8943 15.8526 54.801 15.554C54.7076 15.2553 54.5536 15.0266 54.339 14.868C54.1243 14.7093 53.8443 14.63 53.499 14.63C52.9763 14.63 52.5516 14.8026 52.225 15.148C51.8983 15.4933 51.735 15.9973 51.735 16.66V21H50.251Z" fill="#4493F8"/>
<path d="M45.2233 21.168C44.514 21.168 43.8933 21.0093 43.3613 20.692C42.8293 20.3746 42.4186 19.922 42.1293 19.334C41.84 18.746 41.6953 18.06 41.6953 17.276C41.6953 16.4826 41.84 15.7966 42.1293 15.218C42.4186 14.6393 42.8293 14.1913 43.3613 13.874C43.8933 13.5473 44.514 13.384 45.2233 13.384C45.9326 13.384 46.5533 13.5473 47.0853 13.874C47.6173 14.1913 48.028 14.6393 48.3173 15.218C48.6066 15.7966 48.7513 16.4826 48.7513 17.276C48.7513 18.06 48.6066 18.746 48.3173 19.334C48.028 19.922 47.6173 20.3746 47.0853 20.692C46.5533 21.0093 45.9326 21.168 45.2233 21.168ZM45.2233 19.88C45.858 19.88 46.348 19.6513 46.6933 19.194C47.0386 18.7273 47.2113 18.088 47.2113 17.276C47.2113 16.464 47.0386 15.8293 46.6933 15.372C46.348 14.9053 45.858 14.672 45.2233 14.672C44.598 14.672 44.108 14.9053 43.7533 15.372C43.408 15.8293 43.2353 16.464 43.2353 17.276C43.2353 18.088 43.408 18.7273 43.7533 19.194C44.108 19.6513 44.598 19.88 45.2233 19.88Z" fill="#4493F8"/>
<path d="M37.6035 21.168C36.9035 21.168 36.3108 21.0606 35.8255 20.846C35.3495 20.6313 34.9808 20.3373 34.7195 19.964C34.4582 19.5813 34.3088 19.1426 34.2715 18.648L35.7975 18.578C35.8722 18.9886 36.0495 19.3153 36.3295 19.558C36.6095 19.8006 37.0342 19.922 37.6035 19.922C38.0702 19.922 38.4388 19.8473 38.7095 19.698C38.9802 19.5486 39.1155 19.3106 39.1155 18.984C39.1155 18.8066 39.0688 18.6573 38.9755 18.536C38.8915 18.4053 38.7235 18.298 38.4715 18.214C38.2195 18.1206 37.8462 18.032 37.3515 17.948C36.6142 17.808 36.0355 17.6446 35.6155 17.458C35.1955 17.2713 34.8968 17.0333 34.7195 16.744C34.5422 16.4546 34.4535 16.1046 34.4535 15.694C34.4535 15.0126 34.7055 14.4573 35.2095 14.028C35.7228 13.5986 36.4602 13.384 37.4215 13.384C38.0655 13.384 38.6068 13.496 39.0455 13.72C39.4842 13.9346 39.8248 14.2286 40.0675 14.602C40.3195 14.966 40.4782 15.3766 40.5435 15.834L39.0175 15.918C38.9708 15.6566 38.8775 15.4326 38.7375 15.246C38.6068 15.05 38.4295 14.9006 38.2055 14.798C37.9815 14.686 37.7155 14.63 37.4075 14.63C36.9315 14.63 36.5768 14.7233 36.3435 14.91C36.1102 15.0966 35.9935 15.3393 35.9935 15.638C35.9935 15.862 36.0448 16.044 36.1475 16.184C36.2595 16.324 36.4368 16.4406 36.6795 16.534C36.9222 16.618 37.2442 16.6926 37.6455 16.758C38.4202 16.8886 39.0268 17.052 39.4655 17.248C39.9042 17.4346 40.2122 17.668 40.3895 17.948C40.5668 18.228 40.6555 18.5686 40.6555 18.97C40.6555 19.4366 40.5248 19.8333 40.2635 20.16C40.0022 20.4866 39.6428 20.7386 39.1855 20.916C38.7282 21.084 38.2008 21.168 37.6035 21.168Z" fill="#4493F8"/>
<path d="M29.7842 21V13.552H31.1422L31.1982 15.526L31.0722 15.484C31.1748 14.812 31.3802 14.322 31.6882 14.014C32.0055 13.706 32.4302 13.552 32.9622 13.552H33.6762V14.882H32.9622C32.5888 14.882 32.2762 14.9427 32.0242 15.064C31.7722 15.1853 31.5808 15.372 31.4502 15.624C31.3288 15.876 31.2682 16.2027 31.2682 16.604V21H29.7842Z" fill="#4493F8"/>
<path d="M24.9206 21.168C24.1926 21.168 23.5626 21.0093 23.0306 20.692C22.5079 20.3746 22.1019 19.922 21.8126 19.334C21.5326 18.746 21.3926 18.06 21.3926 17.276C21.3926 16.492 21.5326 15.8106 21.8126 15.232C22.1019 14.644 22.5079 14.1913 23.0306 13.874C23.5532 13.5473 24.1692 13.384 24.8786 13.384C25.5506 13.384 26.1432 13.5426 26.6566 13.86C27.1699 14.168 27.5666 14.616 27.8466 15.204C28.1359 15.792 28.2806 16.5013 28.2806 17.332V17.71H22.9326C22.9699 18.438 23.1612 18.984 23.5066 19.348C23.8612 19.712 24.3372 19.894 24.9346 19.894C25.3732 19.894 25.7372 19.7913 26.0266 19.586C26.3159 19.3806 26.5166 19.1053 26.6286 18.76L28.1686 18.858C27.9726 19.5486 27.5852 20.1086 27.0066 20.538C26.4372 20.958 25.7419 21.168 24.9206 21.168ZM22.9326 16.59H26.7126C26.6659 15.9273 26.4746 15.4373 26.1386 15.12C25.8119 14.8026 25.3919 14.644 24.8786 14.644C24.3466 14.644 23.9079 14.812 23.5626 15.148C23.2266 15.4746 23.0166 15.9553 22.9326 16.59Z" fill="#4493F8"/>
<path d="M13.2041 21V11.06H16.9141C18.0528 11.06 18.9394 11.3353 19.5741 11.886C20.2088 12.4273 20.5261 13.1833 20.5261 14.154C20.5261 14.798 20.3814 15.358 20.0921 15.834C19.8028 16.3007 19.3874 16.66 18.8461 16.912C18.3141 17.1547 17.6701 17.276 16.9141 17.276H14.7161V21H13.2041ZM14.7161 15.904H16.8721C17.5534 15.904 18.0714 15.7593 18.4261 15.47C18.7808 15.1713 18.9581 14.7327 18.9581 14.154C18.9581 13.5847 18.7808 13.16 18.4261 12.88C18.0714 12.5907 17.5534 12.446 16.8721 12.446H14.7161V15.904Z" fill="#4493F8"/>
</svg>
