<svg width="88" height="32" viewBox="0 0 88 32" fill="none" xmlns="http://www.w3.org/2000/svg">
<rect x="0.5" y="0.5" width="87" height="31" rx="15.5" stroke="#0969DA"/>
<path d="M67.3406 21.7499V13.2379H68.8926L68.9566 15.5099L68.7486 15.3979C68.8446 14.8432 69.0259 14.3952 69.2926 14.0539C69.5592 13.7126 69.8846 13.4619 70.2686 13.3019C70.6526 13.1312 71.0686 13.0459 71.5166 13.0459C72.1566 13.0459 72.6846 13.1899 73.1006 13.4779C73.5272 13.7552 73.8472 14.1392 74.0606 14.6299C74.2846 15.1099 74.3966 15.6592 74.3966 16.2779V21.7499H72.7006V16.7899C72.7006 16.2886 72.6472 15.8672 72.5406 15.5259C72.4339 15.1846 72.2579 14.9232 72.0126 14.7419C71.7672 14.5606 71.4472 14.4699 71.0526 14.4699C70.4552 14.4699 69.9699 14.6672 69.5966 15.0619C69.2232 15.4566 69.0366 16.0326 69.0366 16.7899V21.7499H67.3406Z" fill="#0969DA"/>
<path d="M62.8916 21.75V10.39H64.6196V21.75H62.8916Z" fill="#0969DA"/>
<path d="M56.2866 21.942C55.5613 21.942 54.9266 21.7607 54.3826 21.398C53.8493 21.0353 53.4386 20.5233 53.1506 19.862C52.8733 19.19 52.7346 18.4007 52.7346 17.494C52.7346 16.5873 52.8786 15.8033 53.1666 15.142C53.4546 14.47 53.8653 13.9527 54.3986 13.59C54.932 13.2273 55.5613 13.046 56.2866 13.046C56.8733 13.046 57.396 13.1687 57.8546 13.414C58.3133 13.6593 58.66 14.0007 58.8946 14.438V10.39H60.5906V21.75H59.0066L58.9586 20.47C58.724 20.9287 58.3666 21.2913 57.8866 21.558C57.4173 21.814 56.884 21.942 56.2866 21.942ZM56.7346 20.47C57.1933 20.47 57.5826 20.3527 57.9026 20.118C58.2226 19.8833 58.468 19.542 58.6386 19.094C58.8093 18.646 58.8946 18.1127 58.8946 17.494C58.8946 16.854 58.8093 16.3153 58.6386 15.878C58.468 15.43 58.2226 15.094 57.9026 14.87C57.5826 14.6353 57.1933 14.518 56.7346 14.518C56.052 14.518 55.508 14.7847 55.1026 15.318C54.6973 15.8407 54.4946 16.566 54.4946 17.494C54.4946 18.4113 54.6973 19.1367 55.1026 19.67C55.508 20.2033 56.052 20.47 56.7346 20.47Z" fill="#0969DA"/>
<path d="M47.7041 21.9419C46.8721 21.9419 46.1521 21.7606 45.5441 21.3979C44.9468 21.0352 44.4828 20.5179 44.1521 19.8459C43.8321 19.1739 43.6721 18.3899 43.6721 17.4939C43.6721 16.5979 43.8321 15.8192 44.1521 15.1579C44.4828 14.4859 44.9468 13.9686 45.5441 13.6059C46.1415 13.2326 46.8454 13.0459 47.6561 13.0459C48.4241 13.0459 49.1015 13.2272 49.6881 13.5899C50.2748 13.9419 50.7281 14.4539 51.0481 15.1259C51.3788 15.7979 51.5441 16.6086 51.5441 17.5579V17.9899H45.4321C45.4748 18.8219 45.6935 19.4459 46.0881 19.8619C46.4935 20.2779 47.0375 20.4859 47.7201 20.4859C48.2215 20.4859 48.6375 20.3686 48.9681 20.1339C49.2988 19.8992 49.5281 19.5846 49.6561 19.1899L51.4161 19.3019C51.1921 20.0912 50.7495 20.7312 50.0881 21.2219C49.4375 21.7019 48.6428 21.9419 47.7041 21.9419ZM45.4321 16.7099H49.7521C49.6988 15.9526 49.4801 15.3926 49.0961 15.0299C48.7228 14.6672 48.2428 14.4859 47.6561 14.4859C47.0481 14.4859 46.5468 14.6779 46.1521 15.0619C45.7681 15.4352 45.5281 15.9846 45.4321 16.7099Z" fill="#0969DA"/>
<path d="M35.3562 21.75V10.39H37.0522V17.446L40.8762 13.238H43.0202L39.6922 16.822L43.1482 21.75H41.1962L38.5562 17.878L37.0522 19.478V21.75H35.3562Z" fill="#0969DA"/>
<path d="M26.0593 21.7499V13.2379H27.6113L27.6753 15.5099L27.4673 15.3979C27.5633 14.8432 27.7447 14.3952 28.0113 14.0539C28.278 13.7126 28.6033 13.4619 28.9873 13.3019C29.3713 13.1312 29.7873 13.0459 30.2353 13.0459C30.8753 13.0459 31.4033 13.1899 31.8193 13.4779C32.246 13.7552 32.566 14.1392 32.7793 14.6299C33.0033 15.1099 33.1153 15.6592 33.1153 16.2779V21.7499H31.4193V16.7899C31.4193 16.2886 31.366 15.8672 31.2593 15.5259C31.1527 15.1846 30.9767 14.9232 30.7313 14.7419C30.486 14.5606 30.166 14.4699 29.7713 14.4699C29.174 14.4699 28.6887 14.6672 28.3153 15.0619C27.942 15.4566 27.7553 16.0326 27.7553 16.7899V21.7499H26.0593Z" fill="#0969DA"/>
<path d="M21.825 21.7501V13.2381H23.521V21.7501H21.825ZM21.793 12.0061V10.3101H23.553V12.0061H21.793Z" fill="#0969DA"/>
<path d="M13.376 21.75V10.39H15.104V21.11L14.192 20.166H20.64V21.75H13.376Z" fill="#0969DA"/>
</svg>
