<svg width="80" height="32" viewBox="0 0 80 32" fill="none" xmlns="http://www.w3.org/2000/svg">
<rect x="0.5" y="0.5" width="79" height="31" rx="15.5" stroke="#0969DA"/>
<path d="M60.4229 21V13.552H61.7809L61.8369 15.54L61.6549 15.442C61.7389 14.9567 61.8975 14.5647 62.1309 14.266C62.3642 13.9674 62.6489 13.748 62.9849 13.608C63.3209 13.4587 63.6849 13.384 64.0769 13.384C64.6369 13.384 65.0989 13.51 65.4629 13.762C65.8362 14.0047 66.1162 14.3407 66.3029 14.77C66.4989 15.19 66.5969 15.6707 66.5969 16.212V21H65.1129V16.66C65.1129 16.2214 65.0662 15.8527 64.9729 15.554C64.8795 15.2554 64.7255 15.0267 64.5109 14.868C64.2962 14.7094 64.0162 14.63 63.6709 14.63C63.1482 14.63 62.7235 14.8027 62.3969 15.148C62.0702 15.4934 61.9069 15.9974 61.9069 16.66V21H60.4229Z" fill="#0969DA"/>
<path d="M56.5303 21.0001V11.0601H58.0423V21.0001H56.5303Z" fill="#0969DA"/>
<path d="M50.7506 21.1681C50.1159 21.1681 49.5606 21.0094 49.0846 20.6921C48.6179 20.3747 48.2586 19.9267 48.0066 19.3481C47.7639 18.7601 47.6426 18.0694 47.6426 17.2761C47.6426 16.4827 47.7686 15.7967 48.0206 15.2181C48.2726 14.6301 48.6319 14.1774 49.0986 13.8601C49.5652 13.5427 50.1159 13.3841 50.7506 13.3841C51.2639 13.3841 51.7212 13.4914 52.1226 13.7061C52.5239 13.9207 52.8272 14.2194 53.0326 14.6021V11.0601H54.5166V21.0001H53.1306L53.0886 19.8801C52.8832 20.2814 52.5706 20.5987 52.1506 20.8321C51.7399 21.0561 51.2732 21.1681 50.7506 21.1681ZM51.1426 19.8801C51.5439 19.8801 51.8846 19.7774 52.1646 19.5721C52.4446 19.3667 52.6592 19.0681 52.8086 18.6761C52.9579 18.2841 53.0326 17.8174 53.0326 17.2761C53.0326 16.7161 52.9579 16.2447 52.8086 15.8621C52.6592 15.4701 52.4446 15.1761 52.1646 14.9801C51.8846 14.7747 51.5439 14.6721 51.1426 14.6721C50.5452 14.6721 50.0692 14.9054 49.7146 15.3721C49.3599 15.8294 49.1826 16.4641 49.1826 17.2761C49.1826 18.0787 49.3599 18.7134 49.7146 19.1801C50.0692 19.6467 50.5452 19.8801 51.1426 19.8801Z" fill="#0969DA"/>
<path d="M43.2409 21.168C42.5129 21.168 41.8829 21.0094 41.3509 20.692C40.8282 20.3747 40.4222 19.922 40.1329 19.334C39.8529 18.746 39.7129 18.06 39.7129 17.276C39.7129 16.492 39.8529 15.8107 40.1329 15.232C40.4222 14.644 40.8282 14.1914 41.3509 13.874C41.8736 13.5474 42.4896 13.384 43.1989 13.384C43.8709 13.384 44.4636 13.5427 44.9769 13.86C45.4902 14.168 45.8869 14.616 46.1669 15.204C46.4562 15.792 46.6009 16.5014 46.6009 17.332V17.71H41.2529C41.2902 18.438 41.4816 18.984 41.8269 19.348C42.1816 19.712 42.6576 19.894 43.2549 19.894C43.6936 19.894 44.0576 19.7914 44.3469 19.586C44.6362 19.3807 44.8369 19.1054 44.9489 18.76L46.4889 18.858C46.2929 19.5487 45.9056 20.1087 45.3269 20.538C44.7576 20.958 44.0622 21.168 43.2409 21.168ZM41.2529 16.59H45.0329C44.9862 15.9274 44.7949 15.4374 44.4589 15.12C44.1322 14.8027 43.7122 14.644 43.1989 14.644C42.6669 14.644 42.2282 14.812 41.8829 15.148C41.5469 15.4747 41.3369 15.9554 41.2529 16.59Z" fill="#0969DA"/>
<path d="M32.4365 21.0001V11.0601H33.9205V17.2341L37.2665 13.5521H39.1425L36.2305 16.6881L39.2545 21.0001H37.5465L35.2365 17.6121L33.9205 19.0121V21.0001H32.4365Z" fill="#0969DA"/>
<path d="M24.3018 21V13.552H25.6598L25.7158 15.54L25.5338 15.442C25.6178 14.9567 25.7764 14.5647 26.0098 14.266C26.2431 13.9674 26.5278 13.748 26.8638 13.608C27.1998 13.4587 27.5638 13.384 27.9558 13.384C28.5158 13.384 28.9778 13.51 29.3418 13.762C29.7151 14.0047 29.9951 14.3407 30.1818 14.77C30.3778 15.19 30.4758 15.6707 30.4758 16.212V21H28.9918V16.66C28.9918 16.2214 28.9451 15.8527 28.8518 15.554C28.7584 15.2554 28.6044 15.0267 28.3898 14.868C28.1751 14.7094 27.8951 14.63 27.5498 14.63C27.0271 14.63 26.6024 14.8027 26.2758 15.148C25.9491 15.4934 25.7858 15.9974 25.7858 16.66V21H24.3018Z" fill="#0969DA"/>
<path d="M20.5968 21V13.552H22.0808V21H20.5968ZM20.5688 12.474V10.99H22.1088V12.474H20.5688Z" fill="#0969DA"/>
<path d="M13.2041 21.0001V11.0601H14.7161V20.4401L13.9181 19.6141H19.5601V21.0001H13.2041Z" fill="#0969DA"/>
</svg>
