<svg width="56" height="32" viewBox="0 0 56 32" fill="none" xmlns="http://www.w3.org/2000/svg">
<rect x="0.5" y="0.5" width="55" height="31" rx="15.5" stroke="#4493F8"/>
<path d="M42.0247 21.75C41.47 21.75 41.022 21.606 40.6807 21.318C40.3394 21.03 40.1687 20.5713 40.1687 19.942V10.39H41.8647V19.782C41.8647 19.974 41.9127 20.118 42.0087 20.214C42.1154 20.31 42.2647 20.358 42.4567 20.358H43.1287V21.75H42.0247Z" fill="#4493F8"/>
<path d="M36.2 21.7501V13.2381H37.896V21.7501H36.2ZM36.168 12.0061V10.3101H37.928V12.0061H36.168Z" fill="#4493F8"/>
<path d="M29.6622 21.942C28.7769 21.942 28.0676 21.7394 27.5342 21.334C27.0116 20.9287 26.7502 20.358 26.7502 19.622C26.7502 18.886 26.9689 18.3154 27.4062 17.91C27.8542 17.494 28.5422 17.1954 29.4702 17.014L32.3982 16.454C32.3982 15.7927 32.2436 15.302 31.9342 14.982C31.6249 14.6514 31.1662 14.486 30.5582 14.486C30.0142 14.486 29.5876 14.6087 29.2782 14.854C28.9689 15.0887 28.7556 15.4407 28.6382 15.91L26.8942 15.798C27.0542 14.9447 27.4489 14.2727 28.0782 13.782C28.7182 13.2914 29.5449 13.046 30.5582 13.046C31.7102 13.046 32.5849 13.3554 33.1822 13.974C33.7902 14.582 34.0942 15.4407 34.0942 16.55V19.862C34.0942 20.0647 34.1262 20.2087 34.1902 20.294C34.2649 20.3687 34.3822 20.406 34.5422 20.406H34.8462V21.75C34.7929 21.7607 34.7076 21.7714 34.5902 21.782C34.4729 21.7927 34.3502 21.798 34.2222 21.798C33.8596 21.798 33.5449 21.7394 33.2782 21.622C33.0222 21.5047 32.8302 21.3127 32.7022 21.046C32.5742 20.7687 32.5102 20.4007 32.5102 19.942L32.6862 20.022C32.6009 20.3954 32.4142 20.726 32.1262 21.014C31.8489 21.302 31.4916 21.5314 31.0542 21.702C30.6276 21.862 30.1636 21.942 29.6622 21.942ZM29.9342 20.598C30.4462 20.598 30.8836 20.502 31.2462 20.31C31.6089 20.1074 31.8916 19.83 32.0942 19.478C32.2969 19.126 32.3982 18.726 32.3982 18.278V17.734L29.9022 18.214C29.3902 18.31 29.0276 18.4647 28.8142 18.678C28.6116 18.8807 28.5102 19.142 28.5102 19.462C28.5102 19.8247 28.6329 20.1074 28.8782 20.31C29.1342 20.502 29.4862 20.598 29.9342 20.598Z" fill="#4493F8"/>
<path d="M13.376 21.75V10.39H15.744L19.12 19.718L22.496 10.39H24.864V21.75H23.136V13.43L20.08 21.734H18.16L15.104 13.43V21.75H13.376Z" fill="#4493F8"/>
</svg>
