<svg width="52" height="32" viewBox="0 0 52 32" fill="none" xmlns="http://www.w3.org/2000/svg">
<rect x="0.5" y="0.5" width="51" height="31" rx="15.5" stroke="#0969DA"/>
<path d="M38.2715 21.0001C37.7861 21.0001 37.3941 20.8741 37.0955 20.6221C36.7968 20.3701 36.6475 19.9687 36.6475 19.4181V11.0601H38.1315V19.2781C38.1315 19.4461 38.1735 19.5721 38.2575 19.6561C38.3508 19.7401 38.4815 19.7821 38.6495 19.7821H39.2375V21.0001H38.2715Z" fill="#0969DA"/>
<path d="M33.175 21V13.552H34.659V21H33.175ZM33.147 12.474V10.99H34.687V12.474H33.147Z" fill="#0969DA"/>
<path d="M27.4542 21.168C26.6796 21.168 26.0589 20.9907 25.5922 20.636C25.1349 20.2814 24.9062 19.782 24.9062 19.138C24.9062 18.494 25.0976 17.9947 25.4802 17.64C25.8722 17.276 26.4743 17.0147 27.2863 16.856L29.8483 16.366C29.8483 15.7874 29.7129 15.358 29.4423 15.078C29.1716 14.7887 28.7702 14.644 28.2382 14.644C27.7622 14.644 27.3889 14.7514 27.1182 14.966C26.8476 15.1714 26.6609 15.4794 26.5582 15.89L25.0322 15.792C25.1722 15.0454 25.5176 14.4574 26.0682 14.028C26.6282 13.5987 27.3516 13.384 28.2382 13.384C29.2462 13.384 30.0116 13.6547 30.5342 14.196C31.0662 14.728 31.3322 15.4794 31.3322 16.45V19.348C31.3322 19.5254 31.3602 19.6514 31.4162 19.726C31.4816 19.7914 31.5842 19.824 31.7242 19.824H31.9903V21C31.9436 21.0094 31.8689 21.0187 31.7662 21.028C31.6636 21.0374 31.5562 21.042 31.4442 21.042C31.1269 21.042 30.8516 20.9907 30.6183 20.888C30.3943 20.7854 30.2263 20.6174 30.1143 20.384C30.0023 20.1414 29.9462 19.8194 29.9462 19.418L30.1002 19.488C30.0256 19.8147 29.8622 20.104 29.6102 20.356C29.3676 20.608 29.0549 20.8087 28.6722 20.958C28.2989 21.098 27.8929 21.168 27.4542 21.168ZM27.6923 19.992C28.1403 19.992 28.5229 19.908 28.8402 19.74C29.1576 19.5627 29.4049 19.32 29.5822 19.012C29.7596 18.704 29.8483 18.354 29.8483 17.962V17.486L27.6642 17.906C27.2162 17.99 26.8989 18.1254 26.7122 18.312C26.5349 18.4894 26.4462 18.718 26.4462 18.998C26.4462 19.3154 26.5536 19.5627 26.7682 19.74C26.9922 19.908 27.3003 19.992 27.6923 19.992Z" fill="#0969DA"/>
<path d="M13.2041 21.0001V11.0601H15.2761L18.2301 19.2221L21.1841 11.0601H23.2561V21.0001H21.7441V13.7201L19.0701 20.9861H17.3901L14.7161 13.7201V21.0001H13.2041Z" fill="#0969DA"/>
</svg>
