<svg width="137" height="32" viewBox="0 0 137 32" fill="none" xmlns="http://www.w3.org/2000/svg">
<rect x="0.5" y="0.5" width="136" height="31" rx="15.5" stroke="#0969DA"/>
<path d="M120.145 21.168C119.417 21.168 118.787 21.0094 118.255 20.692C117.733 20.3747 117.327 19.922 117.037 19.334C116.757 18.746 116.617 18.06 116.617 17.276C116.617 16.492 116.757 15.8107 117.037 15.232C117.327 14.644 117.733 14.1914 118.255 13.874C118.778 13.5474 119.394 13.384 120.103 13.384C120.775 13.384 121.368 13.5427 121.881 13.86C122.395 14.168 122.791 14.616 123.071 15.204C123.361 15.792 123.505 16.5014 123.505 17.332V17.71H118.157C118.195 18.438 118.386 18.984 118.731 19.348C119.086 19.712 119.562 19.894 120.159 19.894C120.598 19.894 120.962 19.7914 121.251 19.586C121.541 19.3807 121.741 19.1054 121.853 18.76L123.393 18.858C123.197 19.5487 122.81 20.1087 122.231 20.538C121.662 20.958 120.967 21.168 120.145 21.168ZM118.157 16.59H121.937C121.891 15.9274 121.699 15.4374 121.363 15.12C121.037 14.8027 120.617 14.644 120.103 14.644C119.571 14.644 119.133 14.812 118.787 15.148C118.451 15.4747 118.241 15.9554 118.157 16.59Z" fill="#0969DA"/>
<path d="M114.398 21C113.689 21 113.166 20.8367 112.83 20.51C112.494 20.1833 112.326 19.6747 112.326 18.984V11.802H113.81V18.872C113.81 19.2173 113.885 19.4553 114.034 19.586C114.184 19.7167 114.412 19.782 114.72 19.782H115.784V21H114.398ZM111.192 14.77V13.552H115.784V14.77H111.192Z" fill="#0969DA"/>
<path d="M108.466 21V13.552H109.95V21H108.466ZM108.438 12.474V10.99H109.978V12.474H108.438Z" fill="#0969DA"/>
<path d="M103.912 21.168C103.212 21.168 102.619 21.0607 102.134 20.846C101.658 20.6314 101.289 20.3374 101.028 19.964C100.767 19.5814 100.617 19.1427 100.58 18.648L102.106 18.578C102.181 18.9887 102.358 19.3154 102.638 19.558C102.918 19.8007 103.343 19.922 103.912 19.922C104.379 19.922 104.747 19.8474 105.018 19.698C105.289 19.5487 105.424 19.3107 105.424 18.984C105.424 18.8067 105.377 18.6574 105.284 18.536C105.2 18.4054 105.032 18.298 104.78 18.214C104.528 18.1207 104.155 18.032 103.66 17.948C102.923 17.808 102.344 17.6447 101.924 17.458C101.504 17.2714 101.205 17.0334 101.028 16.744C100.851 16.4547 100.762 16.1047 100.762 15.694C100.762 15.0127 101.014 14.4574 101.518 14.028C102.031 13.5987 102.769 13.384 103.73 13.384C104.374 13.384 104.915 13.496 105.354 13.72C105.793 13.9347 106.133 14.2287 106.376 14.602C106.628 14.966 106.787 15.3767 106.852 15.834L105.326 15.918C105.279 15.6567 105.186 15.4327 105.046 15.246C104.915 15.05 104.738 14.9007 104.514 14.798C104.29 14.686 104.024 14.63 103.716 14.63C103.24 14.63 102.885 14.7234 102.652 14.91C102.419 15.0967 102.302 15.3394 102.302 15.638C102.302 15.862 102.353 16.044 102.456 16.184C102.568 16.324 102.745 16.4407 102.988 16.534C103.231 16.618 103.553 16.6927 103.954 16.758C104.729 16.8887 105.335 17.052 105.774 17.248C106.213 17.4347 106.521 17.668 106.698 17.948C106.875 18.228 106.964 18.5687 106.964 18.97C106.964 19.4367 106.833 19.8334 106.572 20.16C106.311 20.4867 105.951 20.7387 105.494 20.916C105.037 21.084 104.509 21.168 103.912 21.168Z" fill="#0969DA"/>
<path d="M96.3711 21.1681C95.8578 21.1681 95.4005 21.0561 94.9991 20.8321C94.6071 20.5987 94.3038 20.2814 94.0891 19.8801L94.0471 21.0001H92.6611V11.0601H94.1451V14.6021C94.3411 14.2754 94.6305 13.9907 95.0131 13.7481C95.4051 13.5054 95.8578 13.3841 96.3711 13.3841C97.0151 13.3841 97.5751 13.5427 98.0511 13.8601C98.5271 14.1774 98.8911 14.6301 99.1431 15.2181C99.4045 15.7967 99.5351 16.4827 99.5351 17.2761C99.5351 18.0694 99.4045 18.7601 99.1431 19.3481C98.8911 19.9267 98.5271 20.3747 98.0511 20.6921C97.5751 21.0094 97.0151 21.1681 96.3711 21.1681ZM96.1331 19.8801C96.7025 19.8801 97.1551 19.6514 97.4911 19.1941C97.8271 18.7274 97.9951 18.0881 97.9951 17.2761C97.9951 16.4641 97.8271 15.8294 97.4911 15.3721C97.1551 14.9054 96.7071 14.6721 96.1471 14.6721C95.7271 14.6721 95.3678 14.7747 95.0691 14.9801C94.7705 15.1854 94.5418 15.4841 94.3831 15.8761C94.2245 16.2587 94.1451 16.7254 94.1451 17.2761C94.1451 17.8081 94.2245 18.2701 94.3831 18.6621C94.5418 19.0541 94.7705 19.3574 95.0691 19.5721C95.3678 19.7774 95.7225 19.8801 96.1331 19.8801Z" fill="#0969DA"/>
<path d="M87.7975 21.168C87.0695 21.168 86.4395 21.0094 85.9075 20.692C85.3849 20.3747 84.9789 19.922 84.6895 19.334C84.4095 18.746 84.2695 18.06 84.2695 17.276C84.2695 16.492 84.4095 15.8107 84.6895 15.232C84.9789 14.644 85.3849 14.1914 85.9075 13.874C86.4302 13.5474 87.0462 13.384 87.7555 13.384C88.4275 13.384 89.0202 13.5427 89.5335 13.86C90.0469 14.168 90.4435 14.616 90.7235 15.204C91.0129 15.792 91.1575 16.5014 91.1575 17.332V17.71H85.8095C85.8469 18.438 86.0382 18.984 86.3835 19.348C86.7382 19.712 87.2142 19.894 87.8115 19.894C88.2502 19.894 88.6142 19.7914 88.9035 19.586C89.1929 19.3807 89.3935 19.1054 89.5055 18.76L91.0455 18.858C90.8495 19.5487 90.4622 20.1087 89.8835 20.538C89.3142 20.958 88.6189 21.168 87.7975 21.168ZM85.8095 16.59H89.5895C89.5429 15.9274 89.3515 15.4374 89.0155 15.12C88.6889 14.8027 88.2689 14.644 87.7555 14.644C87.2235 14.644 86.7849 14.812 86.4395 15.148C86.1035 15.4747 85.8935 15.9554 85.8095 16.59Z" fill="#0969DA"/>
<path d="M75.0331 21L72.7651 13.552H74.3191L75.9151 19.376L77.5531 13.552H78.9531L80.5911 19.376L82.2011 13.552H83.7551L81.4871 21H79.8211L78.2531 15.68L76.6851 21H75.0331Z" fill="#0969DA"/>
<path d="M67.7754 21.0001C67.29 21.0001 66.898 20.8741 66.5994 20.6221C66.3007 20.3701 66.1514 19.9687 66.1514 19.4181V11.0601H67.6354V19.2781C67.6354 19.4461 67.6774 19.5721 67.7614 19.6561C67.8547 19.7401 67.9854 19.7821 68.1534 19.7821H68.7414V21.0001H67.7754Z" fill="#0969DA"/>
<path d="M60.4582 21.168C59.6835 21.168 59.0628 20.9907 58.5962 20.636C58.1388 20.2814 57.9102 19.782 57.9102 19.138C57.9102 18.494 58.1015 17.9947 58.4842 17.64C58.8762 17.276 59.4782 17.0147 60.2902 16.856L62.8522 16.366C62.8522 15.7874 62.7168 15.358 62.4462 15.078C62.1755 14.7887 61.7742 14.644 61.2422 14.644C60.7662 14.644 60.3928 14.7514 60.1222 14.966C59.8515 15.1714 59.6648 15.4794 59.5622 15.89L58.0362 15.792C58.1762 15.0454 58.5215 14.4574 59.0722 14.028C59.6322 13.5987 60.3555 13.384 61.2422 13.384C62.2502 13.384 63.0155 13.6547 63.5382 14.196C64.0702 14.728 64.3362 15.4794 64.3362 16.45V19.348C64.3362 19.5254 64.3642 19.6514 64.4202 19.726C64.4855 19.7914 64.5882 19.824 64.7282 19.824H64.9942V21C64.9475 21.0094 64.8728 21.0187 64.7702 21.028C64.6675 21.0374 64.5602 21.042 64.4482 21.042C64.1308 21.042 63.8555 20.9907 63.6222 20.888C63.3982 20.7854 63.2302 20.6174 63.1182 20.384C63.0062 20.1414 62.9502 19.8194 62.9502 19.418L63.1042 19.488C63.0295 19.8147 62.8662 20.104 62.6142 20.356C62.3715 20.608 62.0588 20.8087 61.6762 20.958C61.3028 21.098 60.8968 21.168 60.4582 21.168ZM60.6962 19.992C61.1442 19.992 61.5268 19.908 61.8442 19.74C62.1615 19.5627 62.4088 19.32 62.5862 19.012C62.7635 18.704 62.8522 18.354 62.8522 17.962V17.486L60.6682 17.906C60.2202 17.99 59.9028 18.1254 59.7162 18.312C59.5388 18.4894 59.4502 18.718 59.4502 18.998C59.4502 19.3154 59.5575 19.5627 59.7722 19.74C59.9962 19.908 60.3042 19.992 60.6962 19.992Z" fill="#0969DA"/>
<path d="M50.251 21V13.552H51.609L51.665 15.54L51.483 15.442C51.567 14.9567 51.7256 14.5647 51.959 14.266C52.1923 13.9674 52.477 13.748 52.813 13.608C53.149 13.4587 53.513 13.384 53.905 13.384C54.465 13.384 54.927 13.51 55.291 13.762C55.6643 14.0047 55.9443 14.3407 56.131 14.77C56.327 15.19 56.425 15.6707 56.425 16.212V21H54.941V16.66C54.941 16.2214 54.8943 15.8527 54.801 15.554C54.7076 15.2554 54.5536 15.0267 54.339 14.868C54.1243 14.7094 53.8443 14.63 53.499 14.63C52.9763 14.63 52.5516 14.8027 52.225 15.148C51.8983 15.4934 51.735 15.9974 51.735 16.66V21H50.251Z" fill="#0969DA"/>
<path d="M45.2233 21.168C44.514 21.168 43.8933 21.0094 43.3613 20.692C42.8293 20.3747 42.4186 19.922 42.1293 19.334C41.84 18.746 41.6953 18.06 41.6953 17.276C41.6953 16.4827 41.84 15.7967 42.1293 15.218C42.4186 14.6394 42.8293 14.1914 43.3613 13.874C43.8933 13.5474 44.514 13.384 45.2233 13.384C45.9326 13.384 46.5533 13.5474 47.0853 13.874C47.6173 14.1914 48.028 14.6394 48.3173 15.218C48.6066 15.7967 48.7513 16.4827 48.7513 17.276C48.7513 18.06 48.6066 18.746 48.3173 19.334C48.028 19.922 47.6173 20.3747 47.0853 20.692C46.5533 21.0094 45.9326 21.168 45.2233 21.168ZM45.2233 19.88C45.858 19.88 46.348 19.6514 46.6933 19.194C47.0386 18.7274 47.2113 18.088 47.2113 17.276C47.2113 16.464 47.0386 15.8294 46.6933 15.372C46.348 14.9054 45.858 14.672 45.2233 14.672C44.598 14.672 44.108 14.9054 43.7533 15.372C43.408 15.8294 43.2353 16.464 43.2353 17.276C43.2353 18.088 43.408 18.7274 43.7533 19.194C44.108 19.6514 44.598 19.88 45.2233 19.88Z" fill="#0969DA"/>
<path d="M37.6035 21.168C36.9035 21.168 36.3108 21.0607 35.8255 20.846C35.3495 20.6314 34.9808 20.3374 34.7195 19.964C34.4582 19.5814 34.3088 19.1427 34.2715 18.648L35.7975 18.578C35.8722 18.9887 36.0495 19.3154 36.3295 19.558C36.6095 19.8007 37.0342 19.922 37.6035 19.922C38.0702 19.922 38.4388 19.8474 38.7095 19.698C38.9802 19.5487 39.1155 19.3107 39.1155 18.984C39.1155 18.8067 39.0688 18.6574 38.9755 18.536C38.8915 18.4054 38.7235 18.298 38.4715 18.214C38.2195 18.1207 37.8462 18.032 37.3515 17.948C36.6142 17.808 36.0355 17.6447 35.6155 17.458C35.1955 17.2714 34.8968 17.0334 34.7195 16.744C34.5422 16.4547 34.4535 16.1047 34.4535 15.694C34.4535 15.0127 34.7055 14.4574 35.2095 14.028C35.7228 13.5987 36.4602 13.384 37.4215 13.384C38.0655 13.384 38.6068 13.496 39.0455 13.72C39.4842 13.9347 39.8248 14.2287 40.0675 14.602C40.3195 14.966 40.4782 15.3767 40.5435 15.834L39.0175 15.918C38.9708 15.6567 38.8775 15.4327 38.7375 15.246C38.6068 15.05 38.4295 14.9007 38.2055 14.798C37.9815 14.686 37.7155 14.63 37.4075 14.63C36.9315 14.63 36.5768 14.7234 36.3435 14.91C36.1102 15.0967 35.9935 15.3394 35.9935 15.638C35.9935 15.862 36.0448 16.044 36.1475 16.184C36.2595 16.324 36.4368 16.4407 36.6795 16.534C36.9222 16.618 37.2442 16.6927 37.6455 16.758C38.4202 16.8887 39.0268 17.052 39.4655 17.248C39.9042 17.4347 40.2122 17.668 40.3895 17.948C40.5668 18.228 40.6555 18.5687 40.6555 18.97C40.6555 19.4367 40.5248 19.8334 40.2635 20.16C40.0022 20.4867 39.6428 20.7387 39.1855 20.916C38.7282 21.084 38.2008 21.168 37.6035 21.168Z" fill="#0969DA"/>
<path d="M29.7842 21V13.552H31.1422L31.1982 15.526L31.0722 15.484C31.1748 14.812 31.3802 14.322 31.6882 14.014C32.0055 13.706 32.4302 13.552 32.9622 13.552H33.6762V14.882H32.9622C32.5888 14.882 32.2762 14.9427 32.0242 15.064C31.7722 15.1853 31.5808 15.372 31.4502 15.624C31.3288 15.876 31.2682 16.2027 31.2682 16.604V21H29.7842Z" fill="#0969DA"/>
<path d="M24.9206 21.168C24.1926 21.168 23.5626 21.0094 23.0306 20.692C22.5079 20.3747 22.1019 19.922 21.8126 19.334C21.5326 18.746 21.3926 18.06 21.3926 17.276C21.3926 16.492 21.5326 15.8107 21.8126 15.232C22.1019 14.644 22.5079 14.1914 23.0306 13.874C23.5532 13.5474 24.1692 13.384 24.8786 13.384C25.5506 13.384 26.1432 13.5427 26.6566 13.86C27.1699 14.168 27.5666 14.616 27.8466 15.204C28.1359 15.792 28.2806 16.5014 28.2806 17.332V17.71H22.9326C22.9699 18.438 23.1612 18.984 23.5066 19.348C23.8612 19.712 24.3372 19.894 24.9346 19.894C25.3732 19.894 25.7372 19.7914 26.0266 19.586C26.3159 19.3807 26.5166 19.1054 26.6286 18.76L28.1686 18.858C27.9726 19.5487 27.5852 20.1087 27.0066 20.538C26.4372 20.958 25.7419 21.168 24.9206 21.168ZM22.9326 16.59H26.7126C26.6659 15.9274 26.4746 15.4374 26.1386 15.12C25.8119 14.8027 25.3919 14.644 24.8786 14.644C24.3466 14.644 23.9079 14.812 23.5626 15.148C23.2266 15.4747 23.0166 15.9554 22.9326 16.59Z" fill="#0969DA"/>
<path d="M13.2041 21.0001V11.0601H16.9141C18.0528 11.0601 18.9394 11.3354 19.5741 11.8861C20.2088 12.4274 20.5261 13.1834 20.5261 14.1541C20.5261 14.7981 20.3814 15.3581 20.0921 15.8341C19.8028 16.3007 19.3874 16.6601 18.8461 16.9121C18.3141 17.1547 17.6701 17.2761 16.9141 17.2761H14.7161V21.0001H13.2041ZM14.7161 15.9041H16.8721C17.5534 15.9041 18.0714 15.7594 18.4261 15.4701C18.7808 15.1714 18.9581 14.7327 18.9581 14.1541C18.9581 13.5847 18.7808 13.1601 18.4261 12.8801C18.0714 12.5907 17.5534 12.4461 16.8721 12.4461H14.7161V15.9041Z" fill="#0969DA"/>
</svg>
