<svg width="200" height="32" viewBox="0 0 200 32" fill="none" xmlns="http://www.w3.org/2000/svg">
<rect x="0.5" y="0.5" width="199" height="31" rx="15.5" stroke="#0969DA"/>
<path d="M174.294 21.7499V13.2379H175.846L175.894 15.3499L175.702 15.2859C175.798 14.8166 175.963 14.4166 176.198 14.0859C176.443 13.7552 176.742 13.4992 177.094 13.3179C177.446 13.1366 177.83 13.0459 178.246 13.0459C178.971 13.0459 179.563 13.2539 180.022 13.6699C180.48 14.0752 180.768 14.6352 180.886 15.3499H180.614C180.71 14.8486 180.87 14.4326 181.094 14.1019C181.328 13.7606 181.627 13.4992 181.99 13.3179C182.352 13.1366 182.763 13.0459 183.222 13.0459C183.819 13.0459 184.326 13.1739 184.742 13.4299C185.168 13.6752 185.488 14.0379 185.702 14.5179C185.926 14.9979 186.038 15.5846 186.038 16.2779V21.7499H184.342V16.6939C184.342 15.9579 184.208 15.4032 183.942 15.0299C183.675 14.6566 183.27 14.4699 182.726 14.4699C182.374 14.4699 182.064 14.5606 181.798 14.7419C181.531 14.9232 181.323 15.1846 181.174 15.5259C181.035 15.8672 180.966 16.2779 180.966 16.7579V21.7499H179.35V16.7579C179.35 16.0326 179.227 15.4726 178.982 15.0779C178.747 14.6726 178.342 14.4699 177.766 14.4699C177.403 14.4699 177.088 14.5606 176.822 14.7419C176.566 14.9232 176.363 15.1899 176.214 15.5419C176.064 15.8832 175.99 16.2886 175.99 16.7579V21.7499H174.294Z" fill="#0969DA"/>
<path d="M168.548 21.9419C167.737 21.9419 167.028 21.7606 166.42 21.3979C165.812 21.0352 165.342 20.5179 165.012 19.8459C164.681 19.1739 164.516 18.3899 164.516 17.4939C164.516 16.5872 164.681 15.8032 165.012 15.1419C165.342 14.4806 165.812 13.9686 166.42 13.6059C167.028 13.2326 167.737 13.0459 168.548 13.0459C169.358 13.0459 170.068 13.2326 170.676 13.6059C171.284 13.9686 171.753 14.4806 172.084 15.1419C172.414 15.8032 172.58 16.5872 172.58 17.4939C172.58 18.3899 172.414 19.1739 172.084 19.8459C171.753 20.5179 171.284 21.0352 170.676 21.3979C170.068 21.7606 169.358 21.9419 168.548 21.9419ZM168.548 20.4699C169.273 20.4699 169.833 20.2086 170.228 19.6859C170.622 19.1526 170.82 18.4219 170.82 17.4939C170.82 16.5659 170.622 15.8406 170.228 15.3179C169.833 14.7846 169.273 14.5179 168.548 14.5179C167.833 14.5179 167.273 14.7846 166.868 15.3179C166.473 15.8406 166.276 16.5659 166.276 17.4939C166.276 18.4219 166.473 19.1526 166.868 19.6859C167.273 20.2086 167.833 20.4699 168.548 20.4699Z" fill="#0969DA"/>
<path d="M159.688 21.9419C158.878 21.9419 158.168 21.7606 157.56 21.3979C156.952 21.0352 156.483 20.5179 156.152 19.8459C155.822 19.1739 155.656 18.3899 155.656 17.4939C155.656 16.5979 155.822 15.8192 156.152 15.1579C156.483 14.4859 156.952 13.9686 157.56 13.6059C158.168 13.2326 158.878 13.0459 159.688 13.0459C160.382 13.0459 160.995 13.1686 161.528 13.4139C162.072 13.6486 162.51 13.9952 162.84 14.4539C163.182 14.9126 163.4 15.4726 163.496 16.1339L161.72 16.2299C161.635 15.6752 161.411 15.2539 161.048 14.9659C160.686 14.6672 160.232 14.5179 159.688 14.5179C158.974 14.5179 158.414 14.7846 158.008 15.3179C157.614 15.8406 157.416 16.5659 157.416 17.4939C157.416 18.4219 157.614 19.1526 158.008 19.6859C158.414 20.2086 158.974 20.4699 159.688 20.4699C160.232 20.4699 160.686 20.3206 161.048 20.0219C161.411 19.7126 161.635 19.2486 161.72 18.6299L163.496 18.7259C163.4 19.3766 163.182 19.9419 162.84 20.4219C162.51 20.9019 162.072 21.2752 161.528 21.5419C160.995 21.8086 160.382 21.9419 159.688 21.9419Z" fill="#0969DA"/>
<path d="M152.25 21.7499V19.7339H154.314V21.7499H152.25Z" fill="#0969DA"/>
<path d="M147.403 21.75V13.238H148.955L149.019 15.494L148.875 15.446C148.992 14.678 149.227 14.118 149.579 13.766C149.942 13.414 150.427 13.238 151.035 13.238H151.851V14.758H151.035C150.608 14.758 150.251 14.8274 149.963 14.966C149.675 15.1047 149.456 15.318 149.307 15.606C149.168 15.894 149.099 16.2674 149.099 16.726V21.75H147.403Z" fill="#0969DA"/>
<path d="M140.787 21.9419C139.902 21.9419 139.192 21.7392 138.659 21.3339C138.136 20.9286 137.875 20.3579 137.875 19.6219C137.875 18.8859 138.094 18.3152 138.531 17.9099C138.979 17.4939 139.667 17.1952 140.595 17.0139L143.523 16.4539C143.523 15.7926 143.368 15.3019 143.059 14.9819C142.75 14.6512 142.291 14.4859 141.683 14.4859C141.139 14.4859 140.712 14.6086 140.403 14.8539C140.094 15.0886 139.88 15.4406 139.763 15.9099L138.019 15.7979C138.179 14.9446 138.574 14.2726 139.203 13.7819C139.843 13.2912 140.67 13.0459 141.683 13.0459C142.835 13.0459 143.71 13.3552 144.307 13.9739C144.915 14.5819 145.219 15.4406 145.219 16.5499V19.8619C145.219 20.0646 145.251 20.2086 145.315 20.2939C145.39 20.3686 145.507 20.4059 145.667 20.4059H145.971V21.7499C145.918 21.7606 145.832 21.7712 145.715 21.7819C145.598 21.7926 145.475 21.7979 145.347 21.7979C144.984 21.7979 144.67 21.7392 144.403 21.6219C144.147 21.5046 143.955 21.3126 143.827 21.0459C143.699 20.7686 143.635 20.4006 143.635 19.9419L143.811 20.0219C143.726 20.3952 143.539 20.7259 143.251 21.0139C142.974 21.3019 142.616 21.5312 142.179 21.7019C141.752 21.8619 141.288 21.9419 140.787 21.9419ZM141.059 20.5979C141.571 20.5979 142.008 20.5019 142.371 20.3099C142.734 20.1072 143.016 19.8299 143.219 19.4779C143.422 19.1259 143.523 18.7259 143.523 18.2779V17.7339L141.027 18.2139C140.515 18.3099 140.152 18.4646 139.939 18.6779C139.736 18.8806 139.635 19.1419 139.635 19.4619C139.635 19.8246 139.758 20.1072 140.003 20.3099C140.259 20.5019 140.611 20.5979 141.059 20.5979Z" fill="#0969DA"/>
<path d="M131.756 21.9419C130.87 21.9419 130.161 21.7392 129.628 21.3339C129.105 20.9286 128.844 20.3579 128.844 19.6219C128.844 18.8859 129.062 18.3152 129.5 17.9099C129.948 17.4939 130.636 17.1952 131.564 17.0139L134.492 16.4539C134.492 15.7926 134.337 15.3019 134.028 14.9819C133.718 14.6512 133.26 14.4859 132.652 14.4859C132.108 14.4859 131.681 14.6086 131.372 14.8539C131.062 15.0886 130.849 15.4406 130.732 15.9099L128.988 15.7979C129.148 14.9446 129.542 14.2726 130.172 13.7819C130.812 13.2912 131.638 13.0459 132.652 13.0459C133.804 13.0459 134.678 13.3552 135.276 13.9739C135.884 14.5819 136.188 15.4406 136.188 16.5499V19.8619C136.188 20.0646 136.22 20.2086 136.284 20.2939C136.358 20.3686 136.476 20.4059 136.636 20.4059H136.94V21.7499C136.886 21.7606 136.801 21.7712 136.684 21.7819C136.566 21.7926 136.444 21.7979 136.316 21.7979C135.953 21.7979 135.638 21.7392 135.372 21.6219C135.116 21.5046 134.924 21.3126 134.796 21.0459C134.668 20.7686 134.604 20.4006 134.604 19.9419L134.78 20.0219C134.694 20.3952 134.508 20.7259 134.22 21.0139C133.942 21.3019 133.585 21.5312 133.148 21.7019C132.721 21.8619 132.257 21.9419 131.756 21.9419ZM132.028 20.5979C132.54 20.5979 132.977 20.5019 133.34 20.3099C133.702 20.1072 133.985 19.8299 134.188 19.4779C134.39 19.1259 134.492 18.7259 134.492 18.2779V17.7339L131.996 18.2139C131.484 18.3099 131.121 18.4646 130.908 18.6779C130.705 18.8806 130.604 19.1419 130.604 19.4619C130.604 19.8246 130.726 20.1072 130.972 20.3099C131.228 20.5019 131.58 20.5979 132.028 20.5979Z" fill="#0969DA"/>
<path d="M120.091 21.75V10.39H121.787V15.158L121.579 15.126C121.675 14.646 121.851 14.2567 122.107 13.958C122.363 13.6487 122.677 13.4193 123.051 13.27C123.424 13.1207 123.835 13.046 124.283 13.046C124.901 13.046 125.424 13.1847 125.851 13.462C126.277 13.7287 126.597 14.1073 126.811 14.598C127.035 15.0887 127.147 15.6487 127.147 16.278V21.75H125.451V16.726C125.451 15.958 125.317 15.3927 125.051 15.03C124.795 14.6567 124.389 14.47 123.835 14.47C123.216 14.47 122.72 14.6673 122.347 15.062C121.973 15.446 121.787 16.0113 121.787 16.758V21.75H120.091Z" fill="#0969DA"/>
<path d="M113.999 24.3419C113.327 24.3419 112.735 24.2406 112.223 24.0379C111.711 23.8352 111.29 23.5472 110.959 23.1739C110.628 22.8112 110.404 22.3846 110.287 21.8939L112.047 21.7819C112.164 22.1339 112.367 22.4112 112.655 22.6139C112.954 22.8272 113.402 22.9339 113.999 22.9339C114.703 22.9339 115.242 22.7846 115.615 22.4859C115.999 22.1872 116.191 21.7339 116.191 21.1259V19.8939C115.988 20.3312 115.663 20.6779 115.215 20.9339C114.767 21.1899 114.266 21.3179 113.711 21.3179C112.996 21.3179 112.362 21.1419 111.807 20.7899C111.252 20.4379 110.82 19.9526 110.511 19.3339C110.202 18.7152 110.047 18.0006 110.047 17.1899C110.047 16.3686 110.196 15.6486 110.495 15.0299C110.804 14.4112 111.231 13.9259 111.775 13.5739C112.33 13.2219 112.954 13.0459 113.647 13.0459C114.255 13.0459 114.788 13.1846 115.247 13.4619C115.716 13.7392 116.052 14.1126 116.255 14.5819V13.2379H117.887V21.0779C117.887 21.7819 117.727 22.3739 117.407 22.8539C117.098 23.3446 116.65 23.7126 116.063 23.9579C115.487 24.2139 114.799 24.3419 113.999 24.3419ZM113.983 19.8779C114.644 19.8779 115.172 19.6379 115.567 19.1579C115.972 18.6779 116.18 18.0166 116.191 17.1739C116.202 16.6192 116.116 16.1446 115.935 15.7499C115.754 15.3446 115.492 15.0352 115.151 14.8219C114.82 14.5979 114.431 14.4859 113.983 14.4859C113.29 14.4859 112.751 14.7312 112.367 15.2219C111.994 15.7019 111.807 16.3526 111.807 17.1739C111.807 18.0059 111.999 18.6672 112.383 19.1579C112.778 19.6379 113.311 19.8779 113.983 19.8779Z" fill="#0969DA"/>
<path d="M105.016 21.9419C104.184 21.9419 103.464 21.7606 102.856 21.3979C102.259 21.0352 101.795 20.5179 101.464 19.8459C101.144 19.1739 100.984 18.3899 100.984 17.4939C100.984 16.5979 101.144 15.8192 101.464 15.1579C101.795 14.4859 102.259 13.9686 102.856 13.6059C103.454 13.2326 104.158 13.0459 104.968 13.0459C105.736 13.0459 106.414 13.2272 107 13.5899C107.587 13.9419 108.04 14.4539 108.36 15.1259C108.691 15.7979 108.856 16.6086 108.856 17.5579V17.9899H102.744C102.787 18.8219 103.006 19.4459 103.4 19.8619C103.806 20.2779 104.35 20.4859 105.032 20.4859C105.534 20.4859 105.95 20.3686 106.28 20.1339C106.611 19.8992 106.84 19.5846 106.968 19.1899L108.728 19.3019C108.504 20.0912 108.062 20.7312 107.4 21.2219C106.75 21.7019 105.955 21.9419 105.016 21.9419ZM102.744 16.7099H107.064C107.011 15.9526 106.792 15.3926 106.408 15.0299C106.035 14.6672 105.555 14.4859 104.968 14.4859C104.36 14.4859 103.859 14.6779 103.464 15.0619C103.08 15.4352 102.84 15.9846 102.744 16.7099Z" fill="#0969DA"/>
<path d="M91.6733 21.75V12.694C91.6733 11.99 91.8706 11.43 92.2653 11.014C92.6599 10.598 93.2786 10.39 94.1213 10.39H95.6253V11.782H94.3453C94.0146 11.782 93.7693 11.8727 93.6093 12.054C93.4493 12.2247 93.3693 12.47 93.3693 12.79V21.75H91.6733ZM90.4893 14.726V13.35H95.4973V14.726H90.4893ZM98.9693 21.75C98.4146 21.75 97.9666 21.606 97.6253 21.318C97.2839 21.03 97.1133 20.5713 97.1133 19.942V10.39H98.8093V19.782C98.8093 19.974 98.8573 20.118 98.9533 20.214C99.0599 20.31 99.2093 20.358 99.4013 20.358H100.073V21.75H98.9693Z" fill="#0969DA"/>
<path d="M81.5593 24.1499V13.2379H83.1593L83.2073 15.0619L83.0153 14.9659C83.2287 14.3366 83.5807 13.8619 84.0713 13.5419C84.562 13.2112 85.1273 13.0459 85.7673 13.0459C86.5993 13.0459 87.282 13.2539 87.8153 13.6699C88.3593 14.0752 88.7593 14.6139 89.0153 15.2859C89.282 15.9579 89.4153 16.6939 89.4153 17.4939C89.4153 18.2939 89.282 19.0299 89.0153 19.7019C88.7593 20.3739 88.3593 20.9179 87.8153 21.3339C87.282 21.7392 86.5993 21.9419 85.7673 21.9419C85.3407 21.9419 84.9407 21.8672 84.5673 21.7179C84.194 21.5686 83.874 21.3606 83.6073 21.0939C83.3513 20.8166 83.17 20.4912 83.0633 20.1179L83.2553 19.9259V24.1499H81.5593ZM85.4633 20.4699C86.146 20.4699 86.6793 20.2086 87.0633 19.6859C87.458 19.1632 87.6553 18.4326 87.6553 17.4939C87.6553 16.5552 87.458 15.8246 87.0633 15.3019C86.6793 14.7792 86.146 14.5179 85.4633 14.5179C85.0153 14.5179 84.626 14.6299 84.2953 14.8539C83.9647 15.0672 83.7087 15.3979 83.5273 15.8459C83.346 16.2939 83.2553 16.8432 83.2553 17.4939C83.2553 18.1446 83.3407 18.6939 83.5113 19.1419C83.6927 19.5899 83.9487 19.9259 84.2793 20.1499C84.6207 20.3632 85.0153 20.4699 85.4633 20.4699Z" fill="#0969DA"/>
<path d="M72.4031 21.7499V13.2379H73.9551L74.0191 15.5099L73.8111 15.3979C73.9071 14.8432 74.0884 14.3952 74.3551 14.0539C74.6217 13.7126 74.9471 13.4619 75.3311 13.3019C75.7151 13.1312 76.1311 13.0459 76.5791 13.0459C77.2191 13.0459 77.7471 13.1899 78.1631 13.4779C78.5897 13.7552 78.9097 14.1392 79.1231 14.6299C79.3471 15.1099 79.4591 15.6592 79.4591 16.2779V21.7499H77.7631V16.7899C77.7631 16.2886 77.7097 15.8672 77.6031 15.5259C77.4964 15.1846 77.3204 14.9232 77.0751 14.7419C76.8297 14.5606 76.5097 14.4699 76.1151 14.4699C75.5177 14.4699 75.0324 14.6672 74.6591 15.0619C74.2857 15.4566 74.0991 16.0326 74.0991 16.7899V21.7499H72.4031Z" fill="#0969DA"/>
<path d="M68.1687 21.7501V13.2381H69.8647V21.7501H68.1687ZM68.1367 12.0061V10.3101H69.8967V12.0061H68.1367Z" fill="#0969DA"/>
<path d="M54.1687 21.7499V13.2379H55.7207L55.7687 15.3499L55.5767 15.2859C55.6727 14.8166 55.838 14.4166 56.0727 14.0859C56.318 13.7552 56.6167 13.4992 56.9687 13.3179C57.3207 13.1366 57.7047 13.0459 58.1207 13.0459C58.846 13.0459 59.438 13.2539 59.8967 13.6699C60.3554 14.0752 60.6434 14.6352 60.7607 15.3499H60.4887C60.5847 14.8486 60.7447 14.4326 60.9687 14.1019C61.2034 13.7606 61.502 13.4992 61.8647 13.3179C62.2274 13.1366 62.638 13.0459 63.0967 13.0459C63.694 13.0459 64.2007 13.1739 64.6167 13.4299C65.0434 13.6752 65.3634 14.0379 65.5767 14.5179C65.8007 14.9979 65.9127 15.5846 65.9127 16.2779V21.7499H64.2167V16.6939C64.2167 15.9579 64.0834 15.4032 63.8167 15.0299C63.55 14.6566 63.1447 14.4699 62.6007 14.4699C62.2487 14.4699 61.9394 14.5606 61.6727 14.7419C61.406 14.9232 61.198 15.1846 61.0487 15.5259C60.91 15.8672 60.8407 16.2779 60.8407 16.7579V21.7499H59.2247V16.7579C59.2247 16.0326 59.102 15.4726 58.8567 15.0779C58.622 14.6726 58.2167 14.4699 57.6407 14.4699C57.278 14.4699 56.9634 14.5606 56.6967 14.7419C56.4407 14.9232 56.238 15.1899 56.0887 15.5419C55.9394 15.8832 55.8647 16.2886 55.8647 16.7579V21.7499H54.1687Z" fill="#0969DA"/>
<path d="M47.5529 21.9419C46.6675 21.9419 45.9582 21.7392 45.4249 21.3339C44.9022 20.9286 44.6409 20.3579 44.6409 19.6219C44.6409 18.8859 44.8595 18.3152 45.2969 17.9099C45.7449 17.4939 46.4329 17.1952 47.3609 17.0139L50.2889 16.4539C50.2889 15.7926 50.1342 15.3019 49.8249 14.9819C49.5155 14.6512 49.0569 14.4859 48.4489 14.4859C47.9049 14.4859 47.4782 14.6086 47.1689 14.8539C46.8595 15.0886 46.6462 15.4406 46.5289 15.9099L44.7849 15.7979C44.9449 14.9446 45.3395 14.2726 45.9689 13.7819C46.6089 13.2912 47.4355 13.0459 48.4489 13.0459C49.6009 13.0459 50.4755 13.3552 51.0729 13.9739C51.6809 14.5819 51.9849 15.4406 51.9849 16.5499V19.8619C51.9849 20.0646 52.0169 20.2086 52.0809 20.2939C52.1555 20.3686 52.2729 20.4059 52.4329 20.4059H52.7369V21.7499C52.6835 21.7606 52.5982 21.7712 52.4809 21.7819C52.3635 21.7926 52.2409 21.7979 52.1129 21.7979C51.7502 21.7979 51.4355 21.7392 51.1689 21.6219C50.9129 21.5046 50.7209 21.3126 50.5929 21.0459C50.4649 20.7686 50.4009 20.4006 50.4009 19.9419L50.5769 20.0219C50.4915 20.3952 50.3049 20.7259 50.0169 21.0139C49.7395 21.3019 49.3822 21.5312 48.9449 21.7019C48.5182 21.8619 48.0542 21.9419 47.5529 21.9419ZM47.8249 20.5979C48.3369 20.5979 48.7742 20.5019 49.1369 20.3099C49.4995 20.1072 49.7822 19.8299 49.9849 19.4779C50.1875 19.1259 50.2889 18.7259 50.2889 18.2779V17.7339L47.7929 18.2139C47.2809 18.3099 46.9182 18.4646 46.7049 18.6779C46.5022 18.8806 46.4009 19.1419 46.4009 19.4619C46.4009 19.8246 46.5235 20.1072 46.7689 20.3099C47.0249 20.5019 47.3769 20.5979 47.8249 20.5979Z" fill="#0969DA"/>
<path d="M39.5142 24.1501V22.7581H40.2822C40.5702 22.7581 40.7942 22.6941 40.9542 22.5661C41.1248 22.4381 41.2102 22.1927 41.2102 21.8301V13.2381H42.9222V21.8941C42.9222 22.7047 42.7355 23.2807 42.3622 23.6221C41.9995 23.9741 41.3915 24.1501 40.5382 24.1501H39.5142ZM41.1942 12.0061V10.3101H42.9542V12.0061H41.1942Z" fill="#0969DA"/>
<path d="M31.8406 21.7499V13.2379H33.3926L33.4566 15.5099L33.2486 15.3979C33.3446 14.8432 33.5259 14.3952 33.7926 14.0539C34.0592 13.7126 34.3846 13.4619 34.7686 13.3019C35.1526 13.1312 35.5686 13.0459 36.0166 13.0459C36.6566 13.0459 37.1846 13.1899 37.6006 13.4779C38.0272 13.7552 38.3472 14.1392 38.5606 14.6299C38.7846 15.1099 38.8966 15.6592 38.8966 16.2779V21.7499H37.2006V16.7899C37.2006 16.2886 37.1472 15.8672 37.0406 15.5259C36.9339 15.1846 36.7579 14.9232 36.5126 14.7419C36.2672 14.5606 35.9472 14.4699 35.5526 14.4699C34.9552 14.4699 34.4699 14.6672 34.0966 15.0619C33.7232 15.4566 33.5366 16.0326 33.5366 16.7899V21.7499H31.8406Z" fill="#0969DA"/>
<path d="M26.2822 21.9419C25.4502 21.9419 24.7302 21.7606 24.1222 21.3979C23.5249 21.0352 23.0609 20.5179 22.7302 19.8459C22.4102 19.1739 22.2502 18.3899 22.2502 17.4939C22.2502 16.5979 22.4102 15.8192 22.7302 15.1579C23.0609 14.4859 23.5249 13.9686 24.1222 13.6059C24.7196 13.2326 25.4236 13.0459 26.2342 13.0459C27.0022 13.0459 27.6796 13.2272 28.2662 13.5899C28.8529 13.9419 29.3062 14.4539 29.6262 15.1259C29.9569 15.7979 30.1222 16.6086 30.1222 17.5579V17.9899H24.0102C24.0529 18.8219 24.2716 19.4459 24.6662 19.8619C25.0716 20.2779 25.6156 20.4859 26.2982 20.4859C26.7996 20.4859 27.2156 20.3686 27.5462 20.1339C27.8769 19.8992 28.1062 19.5846 28.2342 19.1899L29.9942 19.3019C29.7702 20.0912 29.3276 20.7312 28.6662 21.2219C28.0156 21.7019 27.2209 21.9419 26.2822 21.9419ZM24.0102 16.7099H28.3302C28.2769 15.9526 28.0582 15.3926 27.6742 15.0299C27.3009 14.6672 26.8209 14.4859 26.2342 14.4859C25.6262 14.4859 25.1249 14.6779 24.7302 15.0619C24.3462 15.4352 24.1062 15.9846 24.0102 16.7099Z" fill="#0969DA"/>
<path d="M17.44 21.942C16.8533 21.942 16.3306 21.814 15.872 21.558C15.424 21.2913 15.0773 20.9287 14.832 20.47L14.784 21.75H13.2V10.39H14.896V14.438C15.12 14.0647 15.4506 13.7393 15.888 13.462C16.336 13.1847 16.8533 13.046 17.44 13.046C18.176 13.046 18.816 13.2273 19.36 13.59C19.904 13.9527 20.32 14.47 20.608 15.142C20.9066 15.8033 21.056 16.5873 21.056 17.494C21.056 18.4007 20.9066 19.19 20.608 19.862C20.32 20.5233 19.904 21.0353 19.36 21.398C18.816 21.7607 18.176 21.942 17.44 21.942ZM17.168 20.47C17.8186 20.47 18.336 20.2087 18.72 19.686C19.104 19.1527 19.296 18.422 19.296 17.494C19.296 16.566 19.104 15.8407 18.72 15.318C18.336 14.7847 17.824 14.518 17.184 14.518C16.704 14.518 16.2933 14.6353 15.952 14.87C15.6106 15.1047 15.3493 15.446 15.168 15.894C14.9866 16.3313 14.896 16.8647 14.896 17.494C14.896 18.102 14.9866 18.63 15.168 19.078C15.3493 19.526 15.6106 19.8727 15.952 20.118C16.2933 20.3527 16.6986 20.47 17.168 20.47Z" fill="#0969DA"/>
</svg>
